<svg xmlns="http://www.w3.org/2000/svg" width="24" height="24" viewBox="0 0 24 24" fill="none"><path fill-rule="evenodd" clip-rule="evenodd" d="M14.5418 2.06424C15.0439 2.22033 15.3343 2.62559 15.2371 3.03466L13.9014 8.65538H18.8571C19.2818 8.65538 19.6714 8.83606 19.8689 9.12457C20.0663 9.41307 20.0392 9.76183 19.7983 10.0302L9.39519 21.6204C9.08269 21.9685 8.4911 22.0961 7.98813 21.9237C7.48516 21.7513 7.21393 21.3281 7.34303 20.9171L9.49868 14.0543H5.14286C4.72113 14.0543 4.33367 13.876 4.1349 13.5906C3.93613 13.3051 3.95836 12.9588 4.19272 12.6897L13.1626 2.38981C13.4637 2.0441 14.0396 1.90814 14.5418 2.06424ZM7.28144 12.2999H10.9498C11.3 12.2999 11.6309 12.4232 11.8477 12.6344C12.0644 12.8456 12.1429 13.1214 12.0608 13.3827L11.0096 16.7294L16.682 10.4097H12.5313C12.1923 10.4097 11.8708 10.2942 11.6536 10.0944C11.4365 9.89462 11.3461 9.63114 11.407 9.37517L11.9993 6.8826L7.28144 12.2999Z" fill="#FA7323"></path></svg>