<svg xmlns="http://www.w3.org/2000/svg" width="24" height="24" viewBox="0 0 24 24" fill="none"><path fill-rule="evenodd" clip-rule="evenodd" d="M11.5971 1.18496C11.8629 1.13029 12.1371 1.13029 12.4029 1.18496C12.7102 1.24816 12.9848 1.40199 13.2032 1.52428C13.2155 1.53117 13.2276 1.53795 13.2395 1.54462L16.4376 3.10085C16.9342 3.34251 17.1408 3.94099 16.8992 4.4376C16.6575 4.93421 16.059 5.14089 15.5624 4.89923L12.3395 3.33087C12.3232 3.32296 12.3072 3.31462 12.2914 3.30584C12.1398 3.22165 12.0625 3.17911 12.0048 3.15128C12.0031 3.15048 12.0015 3.14971 12 3.14899C11.9985 3.14971 11.9969 3.15048 11.9952 3.15128C11.9375 3.17911 11.8602 3.22165 11.7086 3.30584C11.6928 3.31462 11.6768 3.32296 11.6605 3.33087L8.43756 4.89923C7.94095 5.14089 7.34247 4.93421 7.10081 4.4376C6.85915 3.94099 7.06583 3.34251 7.56244 3.10085L10.7605 1.54462C10.7724 1.53795 10.7846 1.53116 10.7968 1.52428C11.0152 1.40198 11.2898 1.24816 11.5971 1.18496ZM17.8758 5.26436C18.1441 4.78157 18.7529 4.60763 19.2356 4.87584L20.6627 5.66864C20.6831 5.68 20.7042 5.69161 20.7258 5.70351C20.8859 5.7917 21.0746 5.89561 21.2496 6.03164C21.5058 6.09773 21.7355 6.26478 21.8742 6.51436C22.0042 6.74838 22.0303 7.01201 21.9677 7.2521C22.0016 7.47115 22.0008 7.68653 22.0002 7.86932C22.0001 7.89398 22 7.91804 22 7.94145L21.9999 7.95795L21.9494 11.0165C21.9403 11.5688 21.4852 12.009 20.933 11.9999C20.3808 11.9908 19.9405 11.5357 19.9497 10.9835L19.9872 8.70661L19.2356 9.12416C18.7529 9.39237 18.1441 9.21843 17.8758 8.73564C17.6076 8.25286 17.7816 7.64406 18.2644 7.37584L18.9409 7L18.2644 6.62416C17.7816 6.35594 17.6076 5.74714 17.8758 5.26436ZM6.12416 5.26436C6.39237 5.74714 6.21843 6.35595 5.73564 6.62416L5.05913 7L5.73564 7.37584C6.21843 7.64406 6.39237 8.25286 6.12416 8.73564C5.85594 9.21843 5.24714 9.39237 4.76436 9.12416L4.01277 8.70661L4.05035 10.9835C4.05946 11.5357 3.6192 11.9908 3.06699 11.9999C2.51478 12.009 2.05974 11.5688 2.05062 11.0165L2.00014 7.95795L2 7.94145C2 7.91804 1.99991 7.89398 1.99982 7.86932C1.99916 7.68653 1.99837 7.47115 2.0323 7.2521C1.96971 7.012 1.99583 6.74838 2.12584 6.51436C2.2645 6.26477 2.49418 6.09773 2.75042 6.03164C2.92543 5.89561 3.11408 5.7917 3.27418 5.70352C3.29578 5.69162 3.31687 5.68001 3.33733 5.66864L4.76436 4.87584C5.24714 4.60763 5.85594 4.78158 6.12416 5.26436ZM7.63175 9.50391C7.90576 9.02439 8.51661 8.85778 8.99613 9.13179L12 10.8483L15.0039 9.13179C15.4834 8.85778 16.0942 9.02439 16.3682 9.50391C16.6423 9.98343 16.4757 10.5943 15.9961 10.8683L13 12.5803V17.0893C13 17.6416 12.5523 18.0893 12 18.0893C11.4477 18.0893 11 17.6416 11 17.0893V12.5803L8.00387 10.8683C7.52435 10.5943 7.35775 9.98343 7.63175 9.50391ZM20.925 13.0003C21.4771 12.9868 21.9357 13.4234 21.9492 13.9755L21.9997 16.034C21.9999 16.0422 22 16.0504 22 16.0586C22 16.082 22.0001 16.106 22.0002 16.1307C22.0011 16.3946 22.0023 16.7263 21.899 17.039C21.8097 17.3094 21.6637 17.5576 21.4707 17.7669C21.2476 18.0091 20.9569 18.1692 20.7258 18.2965C20.7042 18.3084 20.6831 18.32 20.6627 18.3314L19.2356 19.1242C18.7529 19.3924 18.1441 19.2184 17.8758 18.7356C17.6076 18.2529 17.7816 17.6441 18.2644 17.3758L19.6914 16.583C19.8513 16.4942 19.933 16.4483 19.9903 16.4118C19.992 16.4108 19.9936 16.4097 19.9951 16.4087C19.9953 16.4069 19.9954 16.405 19.9955 16.403C19.9995 16.3367 20 16.2457 20 16.0708L19.9498 14.0246C19.9363 13.4724 20.3729 13.0139 20.925 13.0003ZM3 13C3.55228 13 4 13.4478 4 14V16.0586C4 16.2415 4.00042 16.3352 4.0045 16.403C4.00462 16.405 4.00474 16.4069 4.00486 16.4087C4.0064 16.4097 4.00802 16.4108 4.00971 16.4118C4.067 16.4483 4.14867 16.4942 4.30861 16.583L5.73564 17.3758C6.21843 17.6441 6.39237 18.2529 6.12416 18.7356C5.85594 19.2184 5.24714 19.3924 4.76436 19.1242L3.33733 18.3314C3.31688 18.32 3.2958 18.3084 3.27421 18.2965C3.04308 18.1692 2.75244 18.0091 2.52926 17.7669C2.33632 17.5576 2.19029 17.3094 2.10097 17.039C1.99765 16.7263 1.99886 16.3946 1.99982 16.1307C1.99991 16.106 2 16.082 2 16.0586V14C2 13.4478 2.44771 13 3 13ZM12 19C12.5523 19 13 19.4478 13 20V20.3005L13.7644 19.8758C14.2471 19.6076 14.8559 19.7816 15.1242 20.2644C15.3924 20.7471 15.2184 21.3559 14.7356 21.6242L13.2627 22.4425C13.2433 22.4532 13.2235 22.4643 13.2032 22.4757C13.0529 22.5599 12.8759 22.659 12.68 22.7332C12.5015 22.8988 12.2626 23 12 23C11.7374 23 11.4985 22.8988 11.32 22.7332C11.1241 22.659 10.9471 22.5599 10.7968 22.4757C10.7765 22.4643 10.7567 22.4532 10.7373 22.4425L9.26436 21.6242C8.78157 21.3559 8.60763 20.7471 8.87584 20.2644C9.14406 19.7816 9.75286 19.6076 10.2356 19.8758L11 20.3005V20C11 19.4478 11.4477 19 12 19Z" fill="#FA7323"></path></svg>