<svg xmlns="http://www.w3.org/2000/svg" width="24" height="24" viewBox="0 0 24 24" fill="none"><path fill-rule="evenodd" clip-rule="evenodd" d="M19.4297 2.00001C19.4226 2.00001 19.4156 2.00001 19.4087 2.00001H17.2329C17.226 2.00001 17.219 2.00001 17.2119 2.00001C17.104 1.99996 16.9748 1.99991 16.861 2.00924C16.729 2.02005 16.5398 2.04782 16.3415 2.1491C16.085 2.28018 15.8769 2.4891 15.7466 2.74548C15.6461 2.94339 15.6185 3.13219 15.6078 3.26401C15.5985 3.37782 15.5985 3.50705 15.5986 3.61536C15.5986 3.62246 15.5986 3.62947 15.5986 3.63637V5.81819C15.5986 5.8251 15.5986 5.8321 15.5986 5.8392C15.5985 5.94751 15.5985 6.07674 15.6078 6.19056C15.6185 6.32237 15.6461 6.51117 15.7466 6.70908C15.8769 6.96547 16.085 7.17438 16.3415 7.30546C16.5398 7.40674 16.729 7.43451 16.861 7.44532C16.9748 7.45465 17.104 7.4546 17.2119 7.45456C17.219 7.45455 17.226 7.45455 17.2329 7.45455H19.4087C19.4156 7.45455 19.4226 7.45455 19.4297 7.45456C19.5377 7.4546 19.6668 7.45465 19.7807 7.44532C19.9127 7.43451 20.1019 7.40674 20.3001 7.30546C20.5566 7.17438 20.7648 6.96547 20.895 6.70908C20.9956 6.51117 21.0231 6.32237 21.0339 6.19056C21.0431 6.07674 21.0431 5.94751 21.0431 5.8392C21.0431 5.8321 21.0431 5.8251 21.0431 5.81819V3.63637C21.0431 3.62947 21.0431 3.62246 21.0431 3.61536C21.0431 3.50705 21.0431 3.37782 21.0339 3.264C21.0231 3.13219 20.9956 2.94339 20.895 2.74548C20.7648 2.4891 20.5566 2.28018 20.3001 2.1491C20.1019 2.04782 19.9127 2.02006 19.7807 2.00924C19.6668 1.99991 19.5377 1.99996 19.4297 2.00001ZM19.2249 3.81819V5.63637H17.4168V3.81819H19.2249ZM5.83116 9.27273L3.61333 9.27273C3.5054 9.27268 3.37623 9.27263 3.26241 9.28196C3.1304 9.29278 2.94119 9.32054 2.74297 9.42182C2.48642 9.55291 2.27831 9.76182 2.14804 10.0182C2.04748 10.2161 2.01993 10.4049 2.00919 10.5367C1.99992 10.6505 1.99997 10.7798 2.00001 10.8881C2.00001 10.8952 2.00001 10.9022 2.00001 10.9091V20.3636C2.00001 20.3705 2.00001 20.3776 2.00001 20.3847C1.99997 20.493 1.99992 20.6222 2.00919 20.736C2.01993 20.8678 2.04748 21.0566 2.14804 21.2545C2.27831 21.5109 2.48642 21.7198 2.74297 21.8509C2.94119 21.9522 3.1304 21.9799 3.26241 21.9908C3.37623 22.0001 3.5054 22 3.61333 22C3.62044 22 3.62745 22 3.63436 22L13.1131 22C13.12 22 13.127 22 13.1341 22C13.242 22 13.3712 22.0001 13.485 21.9908C13.617 21.9799 13.8062 21.9522 14.0045 21.8509C14.261 21.7198 14.4691 21.5109 14.5994 21.2545C14.6999 21.0566 14.7275 20.8678 14.7382 20.736C14.7475 20.6222 14.7475 20.4929 14.7474 20.3846V18.1608C14.7475 18.0525 14.7475 17.9233 14.7382 17.8094C14.7275 17.6776 14.6999 17.4888 14.5994 17.2909C14.4691 17.0345 14.261 16.8256 14.0045 16.6945C13.8062 16.5933 13.617 16.5655 13.485 16.5547C13.3712 16.5454 13.242 16.5454 13.1341 16.5454C13.127 16.5454 13.12 16.5454 13.1131 16.5454H11.0708V14.5455C11.0708 14.5385 11.0708 14.5315 11.0708 14.5244C11.0708 14.4161 11.0709 14.2869 11.0616 14.1731C11.0508 14.0413 11.0233 13.8525 10.9227 13.6546C10.7925 13.3982 10.5843 13.1893 10.3278 13.0582C10.1296 12.9569 9.94037 12.9291 9.80837 12.9183C9.69454 12.909 9.56537 12.909 9.45744 12.9091C9.45034 12.9091 9.44332 12.9091 9.43642 12.9091H7.44448V10.9091C7.44448 10.9022 7.44448 10.8952 7.44448 10.8881C7.44452 10.7798 7.44457 10.6505 7.4353 10.5367C7.42456 10.4049 7.39701 10.2161 7.29645 10.0182C7.16618 9.76181 6.95806 9.5529 6.70152 9.42182C6.5033 9.32054 6.31409 9.29277 6.18208 9.28196C6.06826 9.27263 5.93909 9.27268 5.83116 9.27273ZM5.6263 11.0909V13.0909C5.6263 13.0978 5.62629 13.1048 5.62629 13.1119C5.62625 13.2202 5.6262 13.3495 5.63548 13.4633C5.64622 13.5951 5.67376 13.7839 5.77432 13.9818C5.90459 14.2382 6.11271 14.4471 6.36926 14.5782C6.56748 14.6795 6.75669 14.7072 6.88869 14.718C7.00252 14.7274 7.13168 14.7273 7.23962 14.7273C7.24672 14.7273 7.25373 14.7273 7.26064 14.7273H9.25258V16.7273C9.25258 16.7342 9.25258 16.7412 9.25258 16.7483C9.25254 16.8566 9.25249 16.9858 9.26176 17.0996C9.2725 17.2315 9.30005 17.4203 9.40061 17.6182C9.53088 17.8745 9.739 18.0835 9.99554 18.2145C10.1938 18.3158 10.383 18.3436 10.515 18.3544C10.6288 18.3637 10.758 18.3637 10.8659 18.3636C10.873 18.3636 10.88 18.3636 10.8869 18.3636H12.9292V20.1818L3.81819 20.1818V11.0909L5.6263 11.0909ZM20.3867 13.8182C20.3796 13.8182 20.3726 13.8182 20.3656 13.8182H18.1899C18.183 13.8182 18.1759 13.8182 18.1688 13.8182C18.0609 13.8181 17.9317 13.8181 17.8179 13.8274C17.6859 13.8382 17.4967 13.866 17.2985 13.9673C17.0419 14.0984 16.8338 14.3073 16.7035 14.5636C16.603 14.7616 16.5754 14.9504 16.5647 15.0822C16.5554 15.196 16.5555 15.3252 16.5555 15.4335C16.5555 15.4406 16.5555 15.4476 16.5555 15.4545L16.5555 17.6574C16.5555 17.7657 16.5554 17.8949 16.5647 18.0087C16.5754 18.1405 16.603 18.3293 16.7035 18.5273C16.8338 18.7836 17.0419 18.9925 17.2985 19.1236C17.4967 19.2249 17.6859 19.2527 17.8179 19.2635C17.9317 19.2728 18.0609 19.2728 18.1688 19.2727C18.1759 19.2727 18.183 19.2727 18.1899 19.2727H20.3656C20.3726 19.2727 20.3796 19.2727 20.3867 19.2727C20.4946 19.2728 20.6238 19.2728 20.7376 19.2635C20.8696 19.2527 21.0588 19.2249 21.257 19.1236C21.5136 18.9925 21.7217 18.7836 21.852 18.5273C21.9525 18.3293 21.9801 18.1405 21.9908 18.0087C22.0001 17.8949 22 17.7657 22 17.6574C22 17.6503 22 17.6433 22 17.6364V15.4545C22 15.4476 22 15.4406 22 15.4335C22 15.3252 22.0001 15.196 21.9908 15.0822C21.9801 14.9504 21.9525 14.7616 21.852 14.5636C21.7217 14.3073 21.5136 14.0984 21.257 13.9673C21.0588 13.866 20.8696 13.8382 20.7376 13.8274C20.6238 13.8181 20.4946 13.8181 20.3867 13.8182ZM20.1818 15.6364V17.4545H18.3737V15.6364H20.1818Z" fill="#FA7323"></path><path fill-rule="evenodd" clip-rule="evenodd" d="M16.0175 8.36363C16.0115 8.36364 16.0057 8.36364 16 8.36364H14.3636C14.358 8.36364 14.3521 8.36364 14.3462 8.36363C14.2671 8.36359 14.1609 8.36352 14.0657 8.3713C13.9526 8.38054 13.7776 8.40512 13.5916 8.49988C13.3564 8.61972 13.1652 8.81095 13.0453 9.04615C12.9506 9.23213 12.926 9.40718 12.9168 9.52025C12.909 9.61549 12.909 9.7216 12.9091 9.80071C12.9091 9.80669 12.9091 9.81252 12.9091 9.81818V11.4545C12.9091 11.4602 12.9091 11.466 12.9091 11.472C12.909 11.5511 12.909 11.6572 12.9168 11.7525C12.926 11.8655 12.9506 12.0406 13.0453 12.2266C13.1652 12.4618 13.3564 12.653 13.5916 12.7728C13.7776 12.8676 13.9526 12.8922 14.0657 12.9014C14.1609 12.9092 14.2671 12.9091 14.3462 12.9091C14.3521 12.9091 14.358 12.9091 14.3636 12.9091H16C16.0057 12.9091 16.0115 12.9091 16.0175 12.9091C16.0966 12.9091 16.2027 12.9092 16.2979 12.9014C16.411 12.8922 16.5861 12.8676 16.772 12.7728C17.0072 12.653 17.1985 12.4618 17.3183 12.2266C17.4131 12.0406 17.4376 11.8655 17.4469 11.7525C17.4547 11.6572 17.4546 11.5511 17.4545 11.472C17.4545 11.466 17.4545 11.4602 17.4545 11.4545V9.81818C17.4545 9.81252 17.4545 9.80669 17.4545 9.80071C17.4546 9.7216 17.4547 9.61549 17.4469 9.52025C17.4376 9.40718 17.4131 9.23213 17.3183 9.04615C17.1985 8.81095 17.0072 8.61972 16.772 8.49988C16.5861 8.40512 16.411 8.38054 16.2979 8.3713C16.2027 8.36352 16.0966 8.36359 16.0175 8.36363ZM15.6364 10.1818H14.7273V11.0909H15.6364V10.1818Z" fill="#FA7323"></path><path fill-rule="evenodd" clip-rule="evenodd" d="M10.2056 2.00001C10.1976 2.00001 10.1897 2.00001 10.1818 2.00001H7.45455C7.44669 2.00001 7.43877 2.00001 7.43081 2.00001C7.29276 1.99997 7.14004 1.99993 7.00734 2.01077C6.85638 2.02311 6.65326 2.05388 6.44297 2.16102C6.16501 2.30266 5.93902 2.52865 5.79738 2.80661C5.69024 3.0169 5.65947 3.22002 5.64713 3.37098C5.63629 3.50368 5.63633 3.6564 5.63637 3.79445C5.63637 3.80241 5.63637 3.81033 5.63637 3.81819V6.54546C5.63637 6.55332 5.63637 6.56124 5.63637 6.5692C5.63633 6.70725 5.63629 6.85997 5.64713 6.99267C5.65947 7.14363 5.69024 7.34675 5.79738 7.55704C5.93902 7.835 6.16501 8.061 6.44297 8.20263C6.65326 8.30977 6.85638 8.34055 7.00734 8.35288C7.14004 8.36372 7.29276 8.36368 7.43081 8.36364C7.43877 8.36364 7.44669 8.36364 7.45455 8.36364H10.1818C10.1897 8.36364 10.1976 8.36364 10.2056 8.36364C10.3436 8.36368 10.4963 8.36372 10.629 8.35288C10.78 8.34055 10.9831 8.30977 11.1934 8.20263C11.4714 8.06099 11.6974 7.835 11.839 7.55704C11.9461 7.34675 11.9769 7.14364 11.9892 6.99267C12.0001 6.85997 12 6.70725 12 6.56919C12 6.56123 12 6.55332 12 6.54546V3.81819C12 3.81033 12 3.80242 12 3.79446C12 3.6564 12.0001 3.50368 11.9892 3.37098C11.9769 3.22001 11.9461 3.0169 11.839 2.80661C11.6974 2.52865 11.4714 2.30266 11.1934 2.16102C10.9831 2.05388 10.78 2.02311 10.629 2.01077C10.4963 1.99993 10.3436 1.99997 10.2056 2.00001ZM10.1818 3.81819H7.45455ZM10.1818 3.81819L10.1818 6.54546H7.45455L7.45455 3.81819" fill="#FA7323"></path></svg>