<svg xmlns="http://www.w3.org/2000/svg" width="24" height="24" viewBox="0 0 24 24" fill="none"><path d="M11 11C11 10.4477 11.4477 10 12 10H16C16.5523 10 17 10.4477 17 11C17 11.5523 16.5523 12 16 12H12C11.4477 12 11 11.5523 11 11Z" fill="#FA7323"></path><path d="M12 13C11.4477 13 11 13.4477 11 14C11 14.5523 11.4477 15 12 15H16C16.5523 15 17 14.5523 17 14C17 13.4477 16.5523 13 16 13H12Z" fill="#FA7323"></path><path fill-rule="evenodd" clip-rule="evenodd" d="M3 4C3 2.89543 3.89543 2 5 2H16C17.1046 2 18 2.89543 18 4V6H19C20.1046 6 21 6.89543 21 8V20C21 21.1046 20.1046 22 19 22H9C7.89543 22 7 21.1046 7 20V19H5C3.89543 19 3 18.1046 3 17V4ZM16.284 20H19V17.0577L16.284 20ZM19 14.109L13.5622 20H9V8H19V14.109ZM16 4V6H9C7.89543 6 7 6.89543 7 8V17H5V4H16Z" fill="#FA7323"></path></svg>