<svg xmlns="http://www.w3.org/2000/svg" width="24" height="24" viewBox="0 0 24 24" fill="none"><path fill-rule="evenodd" clip-rule="evenodd" d="M15 12C15 13.6569 13.6569 15 12 15C10.3431 15 9 13.6569 9 12C9 10.3431 10.3431 9 12 9C13.6569 9 15 10.3431 15 12ZM13 12C13 12.5523 12.5523 13 12 13C11.4477 13 11 12.5523 11 12C11 11.4477 11.4477 11 12 11C12.5523 11 13 11.4477 13 12Z" fill="#FA7323"></path><path fill-rule="evenodd" clip-rule="evenodd" d="M12 2C11.2457 2 10.7278 2.41748 10.4138 2.86026C10.1244 3.26833 9.95803 3.75891 9.84778 4.13648C9.79471 4.3182 9.74766 4.49997 9.70681 4.65777L9.69624 4.69859C9.65289 4.86588 9.61774 4.99889 9.58339 5.1098C9.24538 5.22835 8.91882 5.371 8.60579 5.53566C8.53229 5.49115 8.44828 5.43768 8.34885 5.37368L8.29557 5.33935C8.17314 5.26043 8.03268 5.16989 7.88982 5.08308C7.57808 4.89364 7.14912 4.65416 6.69161 4.54924C6.1966 4.43572 5.52867 4.45711 4.99288 4.99289C4.46118 5.5246 4.43434 6.19053 4.53321 6.68083C4.62627 7.14232 4.85032 7.58149 5.03222 7.90681C5.1177 8.05968 5.20687 8.20943 5.28466 8.34008L5.31131 8.38485C5.38349 8.50619 5.4425 8.60646 5.49033 8.69346C5.34473 8.97963 5.21737 9.27678 5.10985 9.58334C4.99895 9.61769 4.86593 9.65283 4.69864 9.69618L4.65791 9.70673C4.5001 9.74758 4.31826 9.79465 4.13652 9.84771C3.75894 9.95797 3.26835 10.1243 2.86026 10.4137C2.41747 10.7278 2 11.2457 2 12C2 12.7543 2.41747 13.2722 2.86026 13.5862C3.26835 13.8757 3.75894 14.042 4.13652 14.1523C4.3183 14.2054 4.50013 14.2524 4.65797 14.2933L4.69864 14.3038C4.86593 14.3472 4.99895 14.3823 5.10986 14.4167C5.21565 14.7183 5.34065 15.0108 5.48334 15.2928C5.43533 15.3752 5.37705 15.4696 5.30615 15.5838L5.29199 15.6066C5.20831 15.7413 5.11094 15.8981 5.01754 16.0599C4.82983 16.3851 4.598 16.8294 4.50714 17.3052C4.40823 17.8231 4.46474 18.479 4.99288 19.0071C5.52413 19.5384 6.18192 19.5913 6.70525 19.4772C7.17751 19.3742 7.61161 19.1263 7.92315 18.931C8.07479 18.8359 8.22207 18.7369 8.3485 18.652L8.38024 18.6306C8.47282 18.5685 8.55128 18.5161 8.62032 18.472C8.92892 18.6334 9.2506 18.7735 9.58338 18.8902C9.61773 19.0011 9.65289 19.1341 9.69624 19.3014L9.70677 19.3421C9.74763 19.4999 9.7947 19.6818 9.84778 19.8635C9.95803 20.2411 10.1244 20.7317 10.4138 21.1397C10.7278 21.5825 11.2457 22 12 22C12.7543 22 13.2722 21.5825 13.5863 21.1397C13.8757 20.7317 14.042 20.2411 14.1523 19.8635C14.2054 19.6817 14.2524 19.4999 14.2933 19.3421L14.3038 19.3014C14.3472 19.1341 14.3823 19.0011 14.4167 18.8902C14.7495 18.7735 15.0711 18.6334 15.3797 18.472C15.4488 18.5161 15.5272 18.5685 15.6198 18.6306L15.6516 18.652C15.778 18.737 15.9253 18.8359 16.0769 18.931C16.3884 19.1263 16.8225 19.3742 17.2948 19.4772C17.8181 19.5913 18.4759 19.5384 19.0071 19.0071C19.5352 18.4789 19.5917 17.8231 19.4928 17.3052C19.402 16.8294 19.1702 16.3852 18.9825 16.06C18.8891 15.8982 18.7917 15.7414 18.7081 15.6067L18.6939 15.5838C18.623 15.4696 18.5647 15.3752 18.5167 15.2928C18.6594 15.0109 18.7844 14.7183 18.8902 14.4167C19.0011 14.3823 19.1341 14.3472 19.3014 14.3038L19.3422 14.2933C19.5 14.2524 19.6818 14.2054 19.8635 14.1523C20.2411 14.042 20.7316 13.8757 21.1397 13.5862C21.5825 13.2722 22 12.7543 22 12C22 11.2457 21.5826 10.7278 21.1398 10.4138C20.7317 10.1243 20.2411 9.95797 19.8635 9.84771C19.6818 9.79464 19.4999 9.74757 19.3421 9.70672L19.3014 9.69618C19.1341 9.65283 19.0011 9.61768 18.8902 9.58333C18.7844 9.28168 18.6594 8.98915 18.5167 8.70721C18.5647 8.62478 18.623 8.53035 18.6939 8.41616L18.7081 8.39334C18.7917 8.25862 18.8891 8.10186 18.9825 7.94004C19.1702 7.61483 19.402 7.17056 19.4928 6.69484C19.5917 6.17694 19.5352 5.52106 19.0071 4.99292C18.4759 4.46164 17.8181 4.40868 17.2948 4.52281C16.8225 4.6258 16.3884 4.87368 16.0769 5.06902C15.9253 5.16409 15.778 5.26304 15.6516 5.348L15.6198 5.36937C15.5272 5.43154 15.4488 5.48387 15.3797 5.52804C15.0711 5.3666 14.7495 5.22651 14.4167 5.1098C14.3823 4.99889 14.3472 4.86588 14.3038 4.69859L14.2933 4.65794C14.2524 4.5001 14.2054 4.31826 14.1523 4.13648C14.042 3.75891 13.8757 3.26833 13.5863 2.86026C13.2722 2.41748 12.7543 2 12 2ZM10.4853 6.91934C10.9227 6.78916 11.1512 6.45756 11.2498 6.28834C11.3605 6.09843 11.4342 5.89085 11.4858 5.72732C11.5398 5.55588 11.5887 5.36848 11.6323 5.20032L11.6417 5.16414C11.6839 5.00099 11.7236 4.84789 11.7676 4.69711C11.85 4.4149 11.9274 4.21715 12 4.08895C12.0727 4.21715 12.1501 4.4149 12.2325 4.69711C12.2765 4.84787 12.3161 5.00089 12.3584 5.16402L12.3678 5.20032C12.4114 5.36849 12.4602 5.55588 12.5143 5.72732C12.5658 5.89085 12.6396 6.09843 12.7503 6.28834C12.8488 6.45756 13.0773 6.78916 13.5148 6.91934C13.9453 7.04748 14.3532 7.22902 14.7307 7.45652C15.1579 7.71392 15.5859 7.61581 15.7693 7.55894C15.9775 7.49433 16.167 7.38972 16.3035 7.30821C16.4489 7.22146 16.6009 7.11968 16.7349 7.02965L16.7624 7.01118C16.8937 6.92299 17.0158 6.84098 17.1394 6.76347C17.2514 6.69321 17.3484 6.63741 17.4318 6.59413C17.3874 6.69145 17.3277 6.80625 17.2503 6.9403C17.1735 7.07336 17.0916 7.20526 17.004 7.34628L16.9948 7.36119C16.9084 7.50034 16.8113 7.65676 16.729 7.80515C16.6511 7.94541 16.554 8.13474 16.4943 8.33865C16.4438 8.5112 16.3483 8.93008 16.5916 9.35072C16.7967 9.70527 16.9617 10.0855 17.0807 10.4852C17.2109 10.9227 17.5425 11.1512 17.7117 11.2498C17.9016 11.3604 18.1092 11.4342 18.2727 11.4858C18.4442 11.5398 18.6316 11.5887 18.7997 11.6322L18.836 11.6416C18.9991 11.6839 19.1521 11.7235 19.3029 11.7675C19.5852 11.85 19.7829 11.9273 19.9111 12C19.7829 12.0726 19.5851 12.15 19.3029 12.2325C19.1521 12.2765 18.9991 12.3161 18.8359 12.3584L18.7997 12.3678C18.6315 12.4113 18.4441 12.4602 18.2727 12.5143C18.1092 12.5658 17.9016 12.6396 17.7117 12.7502C17.5424 12.8488 17.2108 13.0773 17.0807 13.5148C16.9617 13.9145 16.7967 14.2947 16.5916 14.6493C16.3483 15.0699 16.4438 15.4888 16.4943 15.6614C16.554 15.8653 16.6511 16.0546 16.729 16.1949C16.8113 16.3432 16.9084 16.4997 16.9948 16.6388L17.0041 16.6538C17.0916 16.7948 17.1735 16.9267 17.2503 17.0597C17.3277 17.1937 17.3874 17.3085 17.4318 17.4059C17.3485 17.3626 17.2514 17.3068 17.1394 17.2365C17.0158 17.159 16.8937 17.077 16.7624 16.9888L16.7349 16.9703C16.6009 16.8803 16.4489 16.7785 16.3035 16.6918C16.167 16.6103 15.9775 16.5057 15.7693 16.4411C15.5859 16.3842 15.1579 16.2861 14.7307 16.5435C14.3532 16.771 13.9453 16.9525 13.5148 17.0807C13.0773 17.2108 12.8488 17.5424 12.7503 17.7117C12.6396 17.9016 12.5658 18.1091 12.5143 18.2727C12.4602 18.4441 12.4114 18.6315 12.3678 18.7997L12.3584 18.836C12.3161 18.9991 12.2765 19.1521 12.2325 19.3029C12.1501 19.5851 12.0727 19.7829 12 19.911C11.9274 19.7829 11.85 19.5851 11.7676 19.3029C11.7236 19.1521 11.6839 18.999 11.6417 18.8358L11.6323 18.7997C11.5887 18.6315 11.5398 18.4441 11.4858 18.2727C11.4342 18.1091 11.3605 17.9016 11.2498 17.7117C11.1512 17.5424 10.9227 17.2108 10.4853 17.0807C10.0547 16.9525 9.64688 16.771 9.26932 16.5435C8.84215 16.2861 8.41413 16.3842 8.2308 16.4411C8.02257 16.5057 7.83307 16.6103 7.69651 16.6918C7.55115 16.7785 7.39919 16.8803 7.26514 16.9703L7.23762 16.9888C7.10637 17.077 6.98429 17.159 6.8607 17.2365C6.74861 17.3068 6.65154 17.3626 6.56818 17.4059C6.61257 17.3086 6.67233 17.1938 6.74971 17.0597C6.82649 16.9267 6.90839 16.7948 6.99594 16.6538L7.00525 16.6388C7.09165 16.4997 7.18868 16.3433 7.27106 16.1949C7.34893 16.0546 7.44607 15.8653 7.50577 15.6614C7.5563 15.4888 7.65182 15.0699 7.40848 14.6493C7.20339 14.2947 7.03838 13.9145 6.9194 13.5148C6.78921 13.0773 6.4576 12.8488 6.28838 12.7502C6.09846 12.6396 5.89088 12.5658 5.72734 12.5142C5.55591 12.4602 5.36851 12.4113 5.20034 12.3678L5.16414 12.3584C5.00098 12.3161 4.84791 12.2765 4.69712 12.2325C4.41488 12.15 4.2171 12.0727 4.08891 12C4.2171 11.9273 4.41488 11.85 4.69712 11.7675C4.84789 11.7235 5.00091 11.6839 5.16404 11.6416L5.20034 11.6322C5.36851 11.5887 5.55591 11.5398 5.72734 11.4857C5.89088 11.4342 6.09846 11.3604 6.28838 11.2498C6.4576 11.1512 6.78921 10.9227 6.9194 10.4852C7.03838 10.0855 7.20339 9.70527 7.40848 9.35072C7.64743 8.93766 7.55972 8.52448 7.51303 8.35364C7.45737 8.14997 7.36495 7.95935 7.28927 7.81589C7.20934 7.66438 7.11525 7.50537 7.0302 7.36239L7.00377 7.31797C6.92421 7.18432 6.84923 7.05835 6.77785 6.9307C6.72422 6.83478 6.67861 6.74809 6.64049 6.67008C6.7044 6.70507 6.77451 6.74565 6.8512 6.79225C6.96964 6.86423 7.08596 6.93918 7.21005 7.01914L7.26642 7.05545C7.40428 7.14418 7.55893 7.24302 7.70749 7.32731C7.84736 7.40667 8.03828 7.50632 8.24632 7.56664C8.42768 7.61922 8.84978 7.70932 9.26932 7.45652C9.64688 7.22902 10.0547 7.04748 10.4853 6.91934Z" fill="#FA7323"></path></svg>