<svg xmlns="http://www.w3.org/2000/svg" width="24" height="24" viewBox="0 0 24 24" fill="none"><path fill-rule="evenodd" clip-rule="evenodd" d="M12 20.8125C15.935 20.8125 19.125 17.6225 19.125 13.6875C19.125 9.75247 15.935 6.5625 12 6.5625C8.06497 6.5625 4.875 9.75247 4.875 13.6875C4.875 17.6225 8.06497 20.8125 12 20.8125ZM12 22.6875C16.9706 22.6875 21 18.6581 21 13.6875C21 8.71694 16.9706 4.6875 12 4.6875C7.02944 4.6875 3 8.71694 3 13.6875C3 18.6581 7.02944 22.6875 12 22.6875Z" fill="#FA7323"></path><path fill-rule="evenodd" clip-rule="evenodd" d="M11.0625 13.875V9.1875C11.0625 8.66973 11.4822 8.25 12 8.25C12.5178 8.25 12.9375 8.66973 12.9375 9.1875V13.875C12.9375 14.3928 12.5178 14.8125 12 14.8125C11.4822 14.8125 11.0625 14.3928 11.0625 13.875Z" fill="#FA7323"></path><path fill-rule="evenodd" clip-rule="evenodd" d="M15.1875 2.4375C15.1875 2.95527 14.7678 3.375 14.25 3.375L9.75 3.375C9.23223 3.375 8.8125 2.95527 8.8125 2.4375C8.8125 1.91973 9.23223 1.5 9.75 1.5L14.25 1.5C14.7678 1.5 15.1875 1.91973 15.1875 2.4375Z" fill="#FA7323"></path><path fill-rule="evenodd" clip-rule="evenodd" d="M20.1629 4.77458L20.9129 5.52458C21.279 5.8907 21.279 6.48429 20.9129 6.85041C20.5468 7.21653 19.9532 7.21653 19.5871 6.85041L18.8371 6.10041C18.471 5.73429 18.471 5.1407 18.8371 4.77458C19.2032 4.40847 19.7968 4.40847 20.1629 4.77458Z" fill="#FA7323"></path></svg>