<svg xmlns="http://www.w3.org/2000/svg" width="509" height="498" viewBox="0 0 509 498" fill="none"><path d="M163.383 464.041H162.126H160.869H159.612H158.356H157.099H155.842H154.585L153.332 462.788L153.328 462.784H152.072L150.819 461.53L150.815 461.526H149.558L148.305 460.273L148.301 460.269L147.048 459.015L147.044 459.011L145.792 457.758L145.788 457.754L144.535 456.5L144.531 456.496L143.278 455.242V453.985L143.274 453.981L142.021 452.727V451.47L142.017 451.466L140.764 450.212V448.955V447.697L140.761 447.693L139.508 446.439V445.182V443.924V442.667V441.409V440.152V438.894V437.636V436.379V435.121V433.864V432.606V431.348V430.091V428.833V427.576L140.761 426.322L140.764 426.318V425.061V423.803V422.545V421.288V420.03L142.017 418.777L142.021 418.773V417.515V416.258V415L143.274 413.746L143.278 413.742V412.485V411.227V409.97L144.531 408.716L144.535 408.712V407.455V406.197V404.939L145.788 403.686L145.792 403.682V402.424V401.167L147.044 399.913L147.048 399.909V398.652V397.394L148.301 396.14L148.305 396.136V394.879V393.621L149.558 392.368L149.562 392.364V391.106V389.848V388.591L150.815 387.337L150.819 387.333V386.076V384.818L152.072 383.565L152.076 383.561V382.303V381.045V379.788L153.328 378.534L153.332 378.53V377.273V376.015L154.585 374.762L154.589 374.758V373.5V372.242L155.842 370.989L155.846 370.985V369.727V368.47L157.099 367.216L157.103 367.212V365.955V364.697L158.356 363.443L158.36 363.439V362.182V360.924L159.612 359.671L159.616 359.667V358.409V357.152L160.869 355.898L160.873 355.894V354.636V353.379V352.121L162.126 350.868L162.13 350.864V349.606V348.348L163.383 347.095L163.387 347.091V345.833V344.576L164.64 343.322L164.643 343.318V342.061V340.803L165.896 339.549L165.9 339.545V338.288V337.03L167.153 335.777L167.157 335.773V334.515V333.258L168.41 332.004L168.414 332V330.742V329.485L169.667 328.231L169.671 328.227V326.97V325.712L170.923 324.458L170.927 324.455V323.197V321.939L172.18 320.686L172.184 320.682V319.424V318.167L173.437 316.913L173.441 316.909V315.652L174.694 314.398L174.698 314.394V313.136V311.879L175.951 310.625L175.955 310.621V309.364V308.106L177.207 306.852L177.211 306.848V305.591L178.464 304.337L178.468 304.333V303.076V301.818L179.721 300.565L179.725 300.561V299.303V298.045V296.788L179.721 296.784L179.717 296.788L178.464 298.041H177.207H175.951L175.947 298.045L174.694 299.299H173.437H172.18L172.176 299.303L170.923 300.557H169.667H168.41L168.406 300.561L167.153 301.814H165.896H164.64L164.636 301.818L163.383 303.072H162.126H160.869L160.865 303.076L159.612 304.329H158.356H157.099L157.095 304.333L155.842 305.587H154.585H153.328H152.072L152.068 305.591L150.815 306.845H149.558H148.301L148.297 306.848L147.044 308.102H145.788H144.531H143.274L143.27 308.106L142.017 309.36H140.761H139.504L139.5 309.364L138.247 310.617H136.99H135.733L135.729 310.621L134.477 311.875H133.22H131.963H130.706L130.702 311.879L129.449 313.132H128.193H126.936H125.679L125.675 313.136L124.422 314.39H123.165H121.909H120.652L120.648 314.394L119.395 315.648H118.138H116.881H115.625H114.368H113.111L113.107 315.652L111.854 316.905H110.598H109.341H108.084H106.827H105.57L105.566 316.909L104.314 318.163H103.057H101.8H100.543H99.2864H98.0296H96.7729H95.5161H94.2593H93.0025H91.7457H90.4889H89.2321H87.9753H86.7185H85.4617H84.205L82.9521 316.909L82.9482 316.905H81.6914H80.4346L79.1817 315.652L79.1778 315.648H77.921H76.6642L75.4114 314.394L75.4074 314.39H74.1506H72.8938L71.641 313.136L71.6371 313.132H70.3803L69.1274 311.879L69.1235 311.875H67.8667L66.6138 310.621L66.6099 310.617L65.357 309.364L65.3531 309.36L64.1003 308.106L64.0963 308.102L62.8435 306.848L62.8395 306.845L61.5867 305.591L61.5827 305.587L60.3299 304.333V303.076L60.3259 303.072L59.0731 301.818L59.0691 301.814L57.8163 300.561V299.303L57.8124 299.299L56.5595 298.045V296.788L56.5556 296.784L55.3027 295.53V294.273V293.015V291.758L55.2988 291.754L54.0459 290.5V289.242V287.985V286.727V285.47V284.212V282.955V281.697V280.439L55.2988 279.186L55.3027 279.182V277.924V276.667V275.409L56.5556 274.155L56.5595 274.152V272.894V271.636L57.8124 270.383L57.8163 270.379V269.121L59.0691 267.868L59.0731 267.864V266.606L60.3259 265.352L60.3299 265.348L61.5827 264.095L61.5867 264.091L62.8395 262.837L62.8435 262.833V261.576L64.0963 260.322L64.1003 260.318L65.3531 259.065L65.357 259.061L66.6099 257.807L66.6138 257.803L67.8667 256.549L67.8706 256.545L69.1235 255.292L69.1274 255.288L70.3803 254.034L70.3842 254.03L71.6371 252.777L71.641 252.773L72.8938 251.519H74.1506L74.1546 251.515L75.4074 250.262L75.4114 250.258L76.6642 249.004L76.6682 249L77.921 247.746L77.9249 247.742L79.1778 246.489H80.4346L80.4385 246.485L81.6914 245.231H82.9482L82.9521 245.227L84.205 243.974L84.2089 243.97L85.4617 242.716H86.7185L86.7225 242.712L87.9753 241.458H89.2321L89.2361 241.455L90.4889 240.201L90.4928 240.197L91.7457 238.943H93.0025L93.0064 238.939L94.2593 237.686H95.5161L95.52 237.682L96.7729 236.428H98.0296H99.2864L99.2904 236.424L100.543 235.171H101.8L101.804 235.167L103.057 233.913H104.314L104.318 233.909L105.57 232.655H106.827L106.831 232.652L108.084 231.398H109.341H110.598L110.601 231.394L111.854 230.14H113.111L113.115 230.136L114.368 228.883H115.625H116.881L116.885 228.879L118.138 227.625H119.395H120.652L120.656 227.621L121.909 226.368H123.165L123.169 226.364L124.422 225.11H125.679H126.936L126.94 225.106L128.193 223.852H129.449L129.453 223.848L130.706 222.595H131.963L131.967 222.591L133.22 221.337H134.477H135.733L135.737 221.333L136.99 220.08H138.247L138.251 220.076L139.504 218.822H140.761H142.017L142.021 218.818L143.274 217.565H144.531L144.535 217.561L144.531 217.557H143.274L142.021 216.303L142.017 216.299H140.761L139.508 215.045L139.504 215.041H138.247L136.994 213.788L136.99 213.784H135.733L134.48 212.53L134.477 212.526H133.22L131.967 211.273L131.963 211.269H130.706H129.449L128.197 210.015L128.193 210.011H126.936L125.683 208.758L125.679 208.754H124.422L123.169 207.5L123.165 207.496H121.909L120.656 206.242L120.652 206.238H119.395L118.142 204.985L118.138 204.981H116.881L115.629 203.727L115.625 203.723H114.368L113.115 202.47L113.111 202.466H111.854L110.601 201.212L110.598 201.208H109.341L108.088 199.955L108.084 199.951H106.827L105.574 198.697L105.57 198.693H104.314L103.061 197.439L103.057 197.435H101.8L100.547 196.182L100.543 196.178H99.2864L98.0336 194.924L98.0296 194.92H96.7729L95.52 193.667L95.5161 193.663H94.2593L93.0064 192.409L93.0025 192.405L91.7496 191.152L91.7457 191.148H90.4889L89.2361 189.894L89.2321 189.89H87.9753L86.7225 188.636L86.7185 188.632H85.4617L84.2089 187.379L84.205 187.375H82.9482L81.6953 186.121L81.6914 186.117L80.4385 184.864L80.4346 184.86H79.1778L77.9249 183.606L77.921 183.602L76.6682 182.348L76.6642 182.345H75.4074L74.1546 181.091L74.1506 181.087L72.8978 179.833L72.8938 179.829L71.641 178.576L71.6371 178.572H70.3803L69.1274 177.318L69.1235 177.314L67.8706 176.061L67.8667 176.057L66.6138 174.803L66.6099 174.799L65.357 173.545L65.3531 173.541L64.1003 172.288L64.0963 172.284L62.8435 171.03L62.8395 171.026L61.5867 169.773L61.5827 169.769L60.3299 168.515V167.258L60.3259 167.254L59.0731 166L59.0691 165.996L57.8163 164.742V163.485L57.8124 163.481L56.5595 162.227L56.5556 162.223L55.3027 160.97V159.712L55.2988 159.708L54.0459 158.455V157.197V155.939L54.042 155.935L52.7891 154.682V153.424V152.167L52.7852 152.163L51.5323 150.909V149.652V148.394V147.136V145.879V144.621V143.364V142.106V140.848V139.591L52.7852 138.337L52.7891 138.333V137.076V135.818L54.042 134.565L54.0459 134.561V133.303L55.2988 132.049L55.3027 132.045V130.788L56.5556 129.534L56.5595 129.53L57.8124 128.277L57.8163 128.273L59.0691 127.019L59.0731 127.015L60.3259 125.762L60.3299 125.758L61.5827 124.504L61.5867 124.5L62.8395 123.246H64.0963L64.1003 123.242L65.3531 121.989H66.6099L66.6138 121.985L67.8667 120.731H69.1235L69.1274 120.727L70.3803 119.474H71.6371H72.8938L72.8978 119.47L74.1506 118.216H75.4074H76.6642H77.921H79.1778L79.1817 118.212L80.4346 116.958L81.6874 118.212L81.6914 118.216H82.9482H84.205H85.4617H86.7185H87.9753H89.2321H90.4889L91.7418 119.47L91.7457 119.474H93.0025H94.2593H95.5161H96.7729L98.0257 120.727L98.0296 120.731H99.2864H100.543L101.796 121.985L101.8 121.989H103.057H104.314H105.57L106.823 123.242L106.827 123.246H108.084H109.341L110.594 124.5L110.598 124.504H111.854H113.111L114.364 125.758L114.368 125.762H115.625H116.881L118.134 127.015L118.138 127.019H119.395L120.648 128.273L120.652 128.277H121.909H123.165L124.418 129.53L124.422 129.534H125.679H126.936L128.189 130.788L128.193 130.792H129.449L130.702 132.045L130.706 132.049H131.963H133.22L134.473 133.303L134.477 133.307H135.733L136.986 134.561L136.99 134.565H138.247H139.504L140.757 135.818L140.761 135.822H142.017L143.27 137.076L143.274 137.08H144.531L145.784 138.333L145.788 138.337H147.044L148.297 139.591L148.301 139.595H149.558H150.815L152.068 140.848L152.072 140.852H153.328L154.581 142.106L154.585 142.11H155.842L157.095 143.364L157.099 143.368H158.356H159.612L160.865 144.621L160.869 144.625H162.126L163.379 145.879L163.383 145.883H164.64L165.892 147.136L165.896 147.14H167.153L168.406 148.394L168.41 148.398H169.667L170.92 149.652L170.923 149.655H172.18H173.437L174.69 150.909L174.694 150.913H175.951L175.955 150.909L175.951 150.905L174.698 149.652V148.394V147.136V145.879L174.694 145.875L173.441 144.621V143.364V142.106L173.437 142.102L172.184 140.848V139.591V138.333V137.076L172.18 137.072L170.927 135.818V134.561V133.303V132.045L170.923 132.042L169.671 130.788V129.53V128.273V127.015V125.758L169.667 125.754L168.414 124.5V123.242V121.985V120.727L168.41 120.723L167.157 119.47V118.212V116.955V115.697V114.439L167.153 114.435L165.9 113.182V111.924V110.667V109.409V108.152L165.896 108.148L164.643 106.894V105.636V104.379V103.121V101.864V100.606L164.64 100.602L163.387 99.3485V98.0909V96.8333V95.5758V94.3182V93.0606V91.803L163.383 91.7991L162.13 90.5455V89.2879V88.0303V86.7727V85.5151V84.2576V83V81.7424V80.4848V79.2273V77.9697V76.7121V75.4545V74.197V72.9394V71.6818V70.4242V69.1667V67.9091V66.6515V65.3939V64.1364V62.8788V61.6212V60.3636V59.1061V57.8485L163.383 56.5948L163.387 56.5909V55.3333V54.0758L164.64 52.8221L164.643 52.8182V51.5606L165.896 50.307L165.9 50.303V49.0455L167.153 47.7918L167.157 47.7879V46.5303L168.41 45.2767L168.414 45.2727L169.667 44.0191L169.671 44.0151L170.923 42.7615L170.927 42.7576L172.18 41.5039L172.184 41.5L173.437 40.2464L173.441 40.2424L174.694 38.9888L174.698 38.9848L175.951 37.7312H177.207L177.211 37.7273L178.464 36.4736H179.721L179.725 36.4697L180.978 35.2161H182.235H183.491H184.748L184.752 35.2121L186.005 33.9585H187.262H188.519H189.775L191.028 35.2121L191.032 35.2161H192.289H193.546H194.802L196.055 36.4697L196.059 36.4736H197.316L198.569 37.7273L198.573 37.7312H199.83L201.082 38.9848L201.086 38.9888L202.339 40.2424L202.343 40.2464H203.6L204.853 41.5L204.857 41.5039L206.11 42.7576L206.114 42.7615L207.366 44.0151L207.37 44.0191L208.623 45.2727L208.627 45.2767L209.88 46.5303L209.884 46.5342L211.137 47.7879L211.141 47.7918L212.394 49.0455V50.303L212.398 50.307L213.65 51.5606L213.654 51.5645L214.907 52.8182L214.911 52.8221L216.164 54.0758V55.3333L216.168 55.3373L217.421 56.5909L217.425 56.5948L218.678 57.8485V59.1061L218.681 59.11L219.934 60.3636L219.938 60.3676L221.191 61.6212V62.8788L221.195 62.8827L222.448 64.1364V65.3939L222.452 65.3979L223.705 66.6515V67.9091L223.709 67.913L224.961 69.1667L224.965 69.1706L226.218 70.4242V71.6818L226.222 71.6858L227.475 72.9394V74.197L227.479 74.2009L228.732 75.4545V76.7121V77.9697L228.736 77.9736L229.989 79.2273V80.4848L229.993 80.4888L231.245 81.7424V83L231.249 83.0039L232.502 84.2576V85.5151L232.506 85.5191L233.759 86.7727V88.0303L233.763 88.0342L235.016 89.2879V90.5455V91.803L235.02 91.807L236.273 93.0606V94.3182L236.277 94.3221L237.529 95.5758V96.8333L237.533 96.8373L238.786 98.0909V99.3485V100.606L238.79 100.61L240.043 101.864V103.121V104.379L240.047 104.383L241.3 105.636V106.894L241.304 106.898L242.557 108.152V109.409L242.561 109.413L243.813 110.667V111.924V113.182L243.817 113.186L245.07 114.439V115.697L245.074 115.701L246.327 116.955V118.212V119.47L246.331 119.474L247.584 120.727V121.985V123.242L247.588 123.246L248.841 124.5V125.758V127.015L248.844 127.019L250.097 128.273V129.53V130.788L250.101 130.792L251.354 132.045V133.303L251.358 133.307H252.615L252.619 133.303V132.045L253.872 130.792L253.876 130.788V129.53L255.128 128.277L255.132 128.273V127.015L256.385 125.762L256.389 125.758V124.5V123.242L257.642 121.989L257.646 121.985V120.727L258.899 119.474L258.903 119.47V118.212L260.156 116.958L260.16 116.955V115.697L261.412 114.443L261.416 114.439V113.182L262.669 111.928L262.673 111.924V110.667V109.409L263.926 108.155L263.93 108.152V106.894L265.183 105.64L265.187 105.636V104.379L266.44 103.125L266.443 103.121V101.864V100.606L267.696 99.3524L267.7 99.3485V98.0909L268.953 96.8373L268.957 96.8333V95.5758L270.21 94.3221L270.214 94.3182V93.0606L271.467 91.807L271.471 91.803V90.5455L272.723 89.2918L272.727 89.2879V88.0303V86.7727L273.98 85.5191L273.984 85.5151V84.2576L275.237 83.0039L275.241 83V81.7424L276.494 80.4888L276.498 80.4848V79.2273V77.9697L277.751 76.7161L277.755 76.7121V75.4545L279.007 74.2009L279.011 74.197V72.9394L280.264 71.6858L280.268 71.6818V70.4242L281.521 69.1706L281.525 69.1667V67.9091V66.6515L282.778 65.3979L282.782 65.3939V64.1364L284.035 62.8827L284.039 62.8788V61.6212L285.291 60.3676L285.295 60.3636V59.1061L286.548 57.8524L286.552 57.8485V56.5909V55.3333L287.805 54.0797L287.809 54.0758V52.8182L289.062 51.5645L289.066 51.5606L290.319 50.307L290.322 50.303V49.0455L291.575 47.7918L291.579 47.7879V46.5303L292.832 45.2767L292.836 45.2727V44.0151L294.089 42.7615L294.093 42.7576L295.346 41.5039L295.35 41.5L296.602 40.2464L296.606 40.2424V38.9848L297.859 37.7312L297.863 37.7273L299.116 36.4736L299.12 36.4697L300.373 35.2161L300.377 35.2121L301.63 33.9585L301.634 33.9545L302.886 32.7009L302.89 32.697L304.143 31.4433L304.147 31.4394L305.4 30.1858H306.657L306.661 30.1818L307.914 28.9282L307.918 28.9242L309.17 27.6706H310.427H311.684L311.688 27.6667L312.941 26.413H314.198H315.454L315.458 26.4091L316.711 25.1555H317.968H319.225H320.481H321.738H322.995H324.252H325.509L326.761 26.4091L326.765 26.413H328.022H329.279L330.532 27.6667L330.536 27.6706H331.793L333.045 28.9242L333.049 28.9282L334.302 30.1818L334.306 30.1858L335.559 31.4394L335.563 31.4433L336.816 32.697L336.82 32.7009L338.073 33.9545L338.077 33.9585L339.329 35.2121L339.333 35.2161L340.586 36.4697V37.7273L340.59 37.7312L341.843 38.9848L341.847 38.9888L343.1 40.2424V41.5V42.7576L343.104 42.7615L344.357 44.0151V45.2727V46.5303V47.7879L344.361 47.7918L345.613 49.0455V50.303V51.5606V52.8182V54.0758V55.3333V56.5909V57.8485V59.1061V60.3636V61.6212V62.8788V64.1364V65.3939V66.6515V67.9091V69.1667V70.4242V71.6818V72.9394L344.361 74.193L344.357 74.197V75.4545V76.7121V77.9697V79.2273V80.4848L343.104 81.7385L343.1 81.7424V83V84.2576V85.5151V86.7727L341.847 88.0264L341.843 88.0303V89.2879V90.5455V91.803L340.59 93.0567L340.586 93.0606V94.3182V95.5758V96.8333L339.333 98.087L339.329 98.0909V99.3485V100.606L338.077 101.86L338.073 101.864V103.121V104.379L336.82 105.632L336.816 105.636V106.894V108.152L335.563 109.405L335.559 109.409V110.667V111.924L334.306 113.178L334.302 113.182V114.439V115.697V116.955L333.049 118.208L333.045 118.212V119.47V120.727L331.793 121.981L331.789 121.985V123.242V124.5L330.536 125.754L330.532 125.758V127.015L329.279 128.269L329.275 128.273V129.53V130.788L328.022 132.042L328.018 132.045V133.303V134.561L326.765 135.814L326.761 135.818V137.076L325.509 138.329L325.505 138.333V139.591V140.848L324.252 142.102L324.248 142.106V143.364V144.621L322.995 145.875L322.991 145.879V147.136V148.394L321.738 149.648L321.734 149.652V150.909L320.481 152.163L320.478 152.167V153.424V154.682L319.225 155.935L319.221 155.939V157.197L317.968 158.451L317.964 158.455V159.712V160.97L317.968 160.974H319.225L319.229 160.97L320.481 159.716H321.738H322.995L322.999 159.712L324.252 158.458H325.509H326.765H328.022L328.026 158.455L329.279 157.201H330.536H331.793L331.797 157.197L333.049 155.943H334.306H335.563H336.82L336.824 155.939L338.077 154.686H339.333H340.59H341.847L341.851 154.682L343.104 153.428H344.361H345.617L345.621 153.424L346.874 152.171H348.131H349.388H350.644H351.901L351.905 152.167L353.158 150.913H354.415H355.672H356.928H358.185L358.189 150.909L359.442 149.655H360.699H361.956H363.212H364.469L364.473 149.652L365.726 148.398H366.983H368.24H369.496H370.753H372.01H373.267L373.271 148.394L374.523 147.14H375.78H377.037H378.294H379.551H380.807H382.064H383.321L383.325 147.136L384.578 145.883H385.835H387.091H388.348H389.605H390.862H392.119H393.375H394.632H395.889H397.146H398.402H399.659H400.916H402.173H403.43H404.686H405.943L407.196 147.136L407.2 147.14H408.457H409.714L410.966 148.394L410.97 148.398H412.227H413.484L414.737 149.652L414.741 149.655H415.998L417.25 150.909L417.254 150.913H418.511L419.764 152.167L419.768 152.171L421.021 153.424L421.025 153.428L422.278 154.682L422.281 154.686L423.534 155.939L423.538 155.943L424.791 157.197L424.795 157.201L426.048 158.455L426.052 158.458L427.305 159.712V160.97L427.309 160.974L428.561 162.227V163.485L428.565 163.489L429.818 164.742V166V167.258L429.822 167.262L431.075 168.515V169.773V171.03V172.288V173.545V174.803V176.061V177.318V178.576L429.822 179.829L429.818 179.833V181.091V182.348L428.565 183.602L428.561 183.606V184.864L427.309 186.117L427.305 186.121V187.379L426.052 188.632L426.048 188.636L424.795 189.89L424.791 189.894V191.152L423.538 192.405L423.534 192.409L422.281 193.663L422.278 193.667L421.025 194.92L421.021 194.924L419.768 196.178L419.764 196.182L418.511 197.435L418.507 197.439L417.254 198.693L417.25 198.697L415.998 199.951H414.741L414.737 199.955L413.484 201.208L413.48 201.212L412.227 202.466L412.223 202.47L410.97 203.723H409.714L409.71 203.727L408.457 204.981L408.453 204.985L407.2 206.238L407.196 206.242L405.943 207.496H404.686L404.682 207.5L403.43 208.754H402.173L402.169 208.758L400.916 210.011L400.912 210.015L399.659 211.269H398.402L398.399 211.273L397.146 212.526H395.889L395.885 212.53L394.632 213.784H393.375L393.371 213.788L392.119 215.041L392.115 215.045L390.862 216.299H389.605L389.601 216.303L388.348 217.557H387.091L387.087 217.561L385.835 218.814H384.578L384.574 218.818L383.321 220.072H382.064H380.807L380.803 220.076L379.551 221.329H378.294L378.29 221.333L377.037 222.587H375.78L375.776 222.591L374.523 223.845H373.267L373.263 223.848L372.01 225.102H370.753L370.749 225.106L369.496 226.36H368.24L368.236 226.364L366.983 227.617H365.726L365.722 227.621L364.469 228.875H363.212H361.956L361.952 228.879L360.699 230.132H359.442L359.438 230.136L358.185 231.39H356.928H355.672L355.668 231.394L354.415 232.648H353.158L353.154 232.652L351.901 233.905H350.644L350.641 233.909L350.644 233.913H351.901L353.154 235.167L353.158 235.171H354.415L355.668 236.424L355.672 236.428H356.928L358.181 237.682L358.185 237.686H359.442L360.695 238.939L360.699 238.943H361.956L363.208 240.197L363.212 240.201L364.465 241.455L364.469 241.458H365.726L366.979 242.712L366.983 242.716H368.24L369.492 243.97L369.496 243.974H370.753L372.006 245.227L372.01 245.231H373.267L374.52 246.485L374.523 246.489H375.78L377.033 247.742L377.037 247.746L378.29 249L378.294 249.004H379.551L380.803 250.258L380.807 250.262H382.064L383.317 251.515L383.321 251.519L384.574 252.773L384.578 252.777H385.835L387.087 254.03L387.091 254.034L388.344 255.288L388.348 255.292H389.605L390.858 256.545L390.862 256.549H392.119L393.371 257.803L393.375 257.807L394.628 259.061L394.632 259.065L395.885 260.318L395.889 260.322H397.146L398.399 261.576L398.402 261.58L399.655 262.833L399.659 262.837L400.912 264.091L400.916 264.095H402.173L403.426 265.348L403.43 265.352L404.682 266.606L404.686 266.61L405.939 267.864L405.943 267.868L407.196 269.121L407.2 269.125L408.453 270.379L408.457 270.383L409.71 271.636L409.714 271.64L410.966 272.894L410.97 272.898L412.223 274.152L412.227 274.155L413.48 275.409L413.484 275.413L414.737 276.667L414.741 276.671L415.994 277.924L415.998 277.928L417.25 279.182L417.254 279.186L418.507 280.439V281.697L418.511 281.701L419.764 282.955L419.768 282.958L421.021 284.212L421.025 284.216L422.278 285.47V286.727L422.281 286.731L423.534 287.985L423.538 287.989L424.791 289.242V290.5L424.795 290.504L426.048 291.758V293.015L426.052 293.019L427.305 294.273V295.53L427.309 295.534L428.561 296.788V298.045V299.303V300.561L428.565 300.565L429.818 301.818V303.076V304.333V305.591V306.848V308.106V309.364V310.621V311.879V313.136L428.565 314.39L428.561 314.394V315.652V316.909V318.167L427.309 319.42L427.305 319.424V320.682L426.052 321.935L426.048 321.939L424.795 323.193L424.791 323.197L423.538 324.451L423.534 324.455L422.281 325.708L422.278 325.712L421.025 326.966L421.021 326.97L419.768 328.223L419.764 328.227L418.511 329.481H417.254L417.25 329.485L415.998 330.738H414.741L414.737 330.742L413.484 331.996H412.227H410.97H409.714H408.457L408.453 332L407.2 333.254H405.943H404.686H403.43H402.173H400.916H399.659H398.402L397.15 332L397.146 331.996H395.889H394.632H393.375H392.119H390.862L389.609 330.742L389.605 330.738H388.348H387.091H385.835H384.578L383.325 329.485L383.321 329.481H382.064H380.807L379.555 328.227L379.551 328.223H378.294H377.037H375.78L374.527 326.97L374.523 326.966H373.267L372.014 325.712L372.01 325.708H370.753H369.496L368.243 324.455L368.24 324.451H366.983H365.726L364.473 323.197L364.469 323.193H363.212H361.956L360.703 321.939L360.699 321.935H359.442H358.185L356.932 320.682L356.928 320.678H355.672L354.419 319.424L354.415 319.42H353.158H351.901L350.648 318.167L350.644 318.163H349.388L348.135 316.909L348.131 316.905H346.874H345.617L344.364 315.652L344.361 315.648H343.104L341.851 314.394L341.847 314.39H340.59H339.333L338.081 313.136L338.077 313.132H336.82L335.567 311.879L335.563 311.875H334.306H333.049L331.797 310.621L331.793 310.617H330.536L329.283 309.364L329.279 309.36H328.022L326.769 308.106L326.765 308.102H325.509L324.256 306.848L324.252 306.845H322.995L321.742 305.591L321.738 305.587H320.481L319.229 304.333L319.225 304.329H317.968L316.715 303.076L316.711 303.072H315.454H314.198L312.945 301.818L312.941 301.814H311.684L310.431 300.561L310.427 300.557H309.17L307.918 299.303L307.914 299.299L307.91 299.303V300.561V301.818L307.914 301.822L309.166 303.076V304.333V305.591L309.17 305.595L310.423 306.848V308.106V309.364L310.427 309.368L311.68 310.621V311.879V313.136V314.394L311.684 314.398L312.937 315.652V316.909V318.167L312.941 318.171L314.194 319.424V320.682V321.939V323.197L314.198 323.201L315.45 324.455V325.712V326.97V328.227L315.454 328.231L316.707 329.485V330.742V332V333.258L316.711 333.262L317.964 334.515V335.773V337.03V338.288L317.968 338.292L319.221 339.545V340.803V342.061L319.225 342.065L320.478 343.318V344.576V345.833V347.091L320.481 347.095L321.734 348.348V349.606V350.864V352.121L321.738 352.125L322.991 353.379V354.636V355.894V357.152V358.409L322.995 358.413L324.248 359.667V360.924V362.182V363.439V364.697V365.955L324.252 365.958L325.505 367.212V368.47V369.727V370.985V372.242V373.5L325.509 373.504L326.761 374.758V376.015V377.273V378.53V379.788V381.045V382.303V383.561V384.818V386.076V387.333V388.591V389.848V391.106V392.364V393.621V394.879V396.136L325.509 397.39L325.505 397.394V398.652V399.909V401.167L324.252 402.42L324.248 402.424V403.682V404.939L322.995 406.193L322.991 406.197V407.455V408.712L321.738 409.966L321.734 409.97V411.227L320.481 412.481L320.478 412.485V413.742L319.225 414.996L319.221 415L317.968 416.254L317.964 416.258L316.711 417.511L316.707 417.515L315.454 418.769L315.45 418.773L314.198 420.026L314.194 420.03L312.941 421.284L312.937 421.288L311.684 422.541L311.68 422.545L310.427 423.799H309.17L309.166 423.803L307.914 425.057H306.657L306.653 425.061L305.4 426.314H304.143H302.886L302.882 426.318L301.63 427.572H300.373H299.116H297.859H296.602H295.346H294.089H292.832H291.575H290.319H289.062H287.805L286.552 426.318L286.548 426.314H285.291H284.035L282.782 425.061L282.778 425.057H281.521L280.268 423.803L280.264 423.799H279.007L277.755 422.545L277.751 422.541L276.498 421.288L276.494 421.284L275.241 420.03L275.237 420.026H273.98L272.727 418.773L272.723 418.769L271.471 417.515L271.467 417.511L270.214 416.258L270.21 416.254L268.957 415L268.953 414.996L267.7 413.742L267.696 413.738L266.443 412.485L266.44 412.481L265.187 411.227L265.183 411.223L263.93 409.97V408.712L263.926 408.708L262.673 407.455L262.669 407.451L261.416 406.197L261.412 406.193L260.16 404.939V403.682L260.156 403.678L258.903 402.424L258.899 402.42L257.646 401.167V399.909L257.642 399.905L256.389 398.652V397.394L256.385 397.39L255.132 396.136V394.879L255.128 394.875L253.876 393.621V392.364L253.872 392.36L252.619 391.106V389.848L252.615 389.845L251.362 388.591L251.358 388.587L250.105 387.333V386.076L250.101 386.072L248.848 384.818V383.561V382.303L248.844 382.299L247.592 381.045V379.788L247.588 379.784L246.335 378.53V377.273V376.015L246.331 376.011L245.078 374.758V373.5L245.074 373.496L243.821 372.242V370.985V369.727L243.817 369.723L242.564 368.47V367.212V365.955L242.561 365.951L241.308 364.697V363.439L241.304 363.435L240.051 362.182V360.924V359.667L240.047 359.663L238.794 358.409V357.152V355.894L238.79 355.89L237.537 354.636V353.379V352.121L237.533 352.117L236.281 350.864V349.606V348.348L236.277 348.345L235.024 347.091V345.833L235.02 345.829L233.767 344.576V343.318V342.061L233.763 342.057H232.506L232.502 342.061V343.318L231.249 344.572L231.245 344.576V345.833L229.993 347.087L229.989 347.091V348.348L228.736 349.602L228.732 349.606V350.864L227.479 352.117L227.475 352.121V353.379L226.222 354.632L226.218 354.636V355.894L224.965 357.148L224.961 357.152V358.409L223.709 359.663L223.705 359.667V360.924L222.452 362.178L222.448 362.182V363.439L221.195 364.693L221.191 364.697V365.955L219.938 367.208L219.934 367.212V368.47L218.681 369.723L218.678 369.727V370.985L217.425 372.238L217.421 372.242V373.5L216.168 374.754L216.164 374.758V376.015L214.911 377.269L214.907 377.273V378.53L213.654 379.784L213.65 379.788V381.045L212.398 382.299L212.394 382.303V383.561L211.141 384.814L211.137 384.818V386.076L209.884 387.329L209.88 387.333V388.591V389.848L208.627 391.102L208.623 391.106V392.364L207.37 393.617L207.366 393.621V394.879V396.136L206.114 397.39L206.11 397.394V398.652L204.857 399.905L204.853 399.909V401.167L203.6 402.42L203.596 402.424V403.682V404.939L202.343 406.193L202.339 406.197V407.455L201.086 408.708L201.082 408.712V409.97L199.83 411.223L199.826 411.227V412.485V413.742L198.573 414.996L198.569 415V416.258L197.316 417.511L197.312 417.515V418.773L196.059 420.026L196.055 420.03V421.288L194.802 422.541L194.799 422.545V423.803L193.546 425.057L193.542 425.061V426.318L192.289 427.572L192.285 427.576V428.833L191.032 430.087L191.028 430.091V431.348L189.775 432.602L189.771 432.606V433.864L188.519 435.117L188.515 435.121V436.379L187.262 437.632L187.258 437.636V438.894L186.005 440.148L186.001 440.152V441.409L184.748 442.663L184.744 442.667L183.491 443.92L183.487 443.924V445.182L182.235 446.435L182.231 446.439V447.697L180.978 448.951L180.974 448.955V450.212L179.721 451.466L179.717 451.47L178.464 452.723L178.46 452.727L177.207 453.981L177.203 453.985L175.951 455.238L175.947 455.242L174.694 456.496L174.69 456.5L173.437 457.754L173.433 457.758L172.18 459.011L172.176 459.015L170.923 460.269H169.667L169.663 460.273L168.41 461.526H167.153L167.149 461.53L165.896 462.784H164.64L164.636 462.788L163.383 464.041Z" fill="#FA7323"></path></svg>