<svg xmlns="http://www.w3.org/2000/svg" width="24" height="24" viewBox="0 0 24 24" fill="none"><path fill-rule="evenodd" clip-rule="evenodd" d="M10.3208 12.1268C11.3328 11.4553 12 10.3056 12 9C12 6.92893 10.3211 5.25 8.25 5.25C6.17893 5.25 4.5 6.92893 4.5 9C4.5 10.3056 5.16716 11.4553 6.17915 12.1268C3.35916 13.0076 1.3125 15.6398 1.3125 18.75C1.3125 19.2678 1.73223 19.6875 2.25 19.6875C2.76777 19.6875 3.1875 19.2678 3.1875 18.75C3.1875 15.9541 5.45406 13.6875 8.25 13.6875C11.0459 13.6875 13.3125 15.9541 13.3125 18.75C13.3125 19.2678 13.7322 19.6875 14.25 19.6875C14.7678 19.6875 15.1875 19.2678 15.1875 18.75C15.1875 17.5025 14.8582 16.3318 14.2818 15.3203C14.9692 14.775 15.8733 14.4375 16.875 14.4375C19.1217 14.4375 20.8125 16.1017 20.8125 18C20.8125 18.5178 21.2322 18.9375 21.75 18.9375C22.2678 18.9375 22.6875 18.5178 22.6875 18C22.6875 15.6555 21.1301 13.7228 18.9977 12.9386C19.756 12.3942 20.25 11.5048 20.25 10.5C20.25 8.84315 18.9069 7.5 17.25 7.5C15.5931 7.5 14.25 8.84315 14.25 10.5C14.25 11.4059 14.6516 12.2181 15.2864 12.7682C14.4912 12.979 13.7626 13.3446 13.1422 13.8311C12.3618 13.0549 11.3977 12.4632 10.3208 12.1268ZM10.125 9C10.125 10.0355 9.28554 10.875 8.25 10.875C7.21447 10.875 6.375 10.0355 6.375 9C6.375 7.96447 7.21447 7.125 8.25 7.125C9.28554 7.125 10.125 7.96447 10.125 9ZM17.25 11.625C17.8713 11.625 18.375 11.1213 18.375 10.5C18.375 9.87868 17.8713 9.375 17.25 9.375C16.6287 9.375 16.125 9.87868 16.125 10.5C16.125 11.1213 16.6287 11.625 17.25 11.625Z" fill="#FA7323"></path></svg>