<svg xmlns="http://www.w3.org/2000/svg" width="515" height="480" viewBox="0 0 515 480" fill="none"><path d="M220.997 479.994H219.997H218.997H217.997L217 478.997L216.997 478.994H215.997H214.997H213.997H212.997H211.997H210.997H209.997H208.997H207.997H206.997H205.997H204.997H203.997H202.997H201.997H200.997H199.997L199 477.997L198.997 477.994H197.997H196.997H195.997H194.997H193.997H192.997H191.997H190.997H189.997H188.997H187.997L187 476.997L186.997 476.994H185.997H184.997H183.997L183 475.997L182.997 475.994H181.997H180.997H179.997H178.997H177.997H176.997L176 474.997L175.997 474.994H174.997H173.997H172.997L172 473.997L171.997 473.994H170.997H169.997H168.997L168 472.997L167.997 472.994H166.997H165.997H164.997L164 471.997L163.997 471.994H162.997H161.997H160.997L160 470.997L159.997 470.994H158.997H157.997L157 469.997L156.997 469.994H155.997H154.997H153.997L153 468.997L152.997 468.994H151.997H150.997L150 467.997L149.997 467.994H148.997H147.997L147 466.997L146.997 466.994H145.997L145 465.997L144.997 465.994H143.997L143 464.997L142.997 464.994H141.997H140.997L140 463.997L139.997 463.994H138.997L138 462.997L137.997 462.994H136.997L136 461.997L135.997 461.994H134.997H133.997L133 460.997L132.997 460.994H131.997L131 459.997L130.997 459.994H129.997H128.997L128 458.997L127.997 458.994H126.997L126 457.997L125.997 457.994H124.997L124 456.997L123.997 456.994H122.997L122 455.997L121.997 455.994H120.997L120 454.997L119.997 454.994H118.997L118 453.997L117.997 453.994H116.997L116 452.997L115.997 452.994H114.997L114 451.997L113.997 451.994L113 450.997L112.997 450.994H111.997L111 449.997L110.997 449.994H109.997L109 448.997L108.997 448.994H107.997L107 447.997L106.997 447.994L106 446.997L105.997 446.994H104.997L104 445.997L103.997 445.994L103 444.997L102.997 444.994H101.997L101 443.997L100.997 443.994L100 442.997L99.9969 442.994H98.9969L98 441.997L97.9969 441.994L97 440.997L96.9969 440.994H95.9969L95 439.997L94.9969 439.994L94 438.997L93.9969 438.994L93 437.997L92.9969 437.994H91.9969L91 436.997L90.9969 436.994L90 435.997L89.9969 435.994L89 434.997L88.9969 434.994L88 433.997L87.9969 433.994H86.9969L86 432.997L85.9969 432.994L85 431.997L84.9969 431.994L84 430.997L83.9969 430.994L83 429.997L82.9969 429.994H81.9969L81 428.997L80.9969 428.994L80 427.997L79.9969 427.994L79 426.997L78.9969 426.994L78 425.997L77.9969 425.994L77 424.997L76.9969 424.994L76 423.997L75.9969 423.994L75 422.997L74.9969 422.994L74 421.997L73.9969 421.994L73 420.997L72.9969 420.994L72 419.997L71.9969 419.994L71 418.997L70.9969 418.994L70 417.997L69.9969 417.994L69 416.997L68.9969 416.994L68 415.997L67.9969 415.994L67 414.997L66.9969 414.994L66 413.997L65.9969 413.994L65 412.997L64.9969 412.994L64 411.997L63.9969 411.994L63 410.997L62.9969 410.994L62 409.997V408.997L61.9969 408.994L61 407.997L60.9969 407.994L60 406.997L59.9969 406.994L59 405.997L58.9969 405.994L58 404.997V403.997L57.9969 403.994L57 402.997L56.9969 402.994L56 401.997L55.9969 401.994L55 400.997V399.997L54.9969 399.994L54 398.997L53.9969 398.994L53 397.997L52.9969 397.994L52 396.997L51.9969 396.994L51 395.997V394.997L50.9969 394.994L50 393.997L49.9969 393.994L49 392.997L48.9969 392.994L48 391.997V390.997L47.9969 390.994L47 389.997L46.9969 389.994L46 388.997L45.9969 388.994L45 387.997V386.997L44.9969 386.994L44 385.997L43.9969 385.994L43 384.997L42.9969 384.994L42 383.997V382.997L41.9969 382.994L41 381.997L40.9969 381.994L40 380.997V379.997L39.9969 379.994L39 378.997V377.997L38.9969 377.994L38 376.997L37.9969 376.994L37 375.997V374.997L36.9969 374.994L36 373.997V372.997L35.9969 372.994L35 371.997L34.9969 371.994L34 370.997V369.997L33.9969 369.994L33 368.997L32.9969 368.994L32 367.997V366.997L31.9969 366.994L31 365.997V364.997L30.9969 364.994L30 363.997V362.997L29.9969 362.994L29 361.997L28.9969 361.994L28 360.997V359.997L27.9969 359.994L27 358.997V357.997L26.9969 357.994L26 356.997V355.997L25.9969 355.994L25 354.997V353.997L24.9969 353.994L24 352.997V351.997L23.9969 351.994L23 350.997V349.997L22.9969 349.994L22 348.997V347.997V346.997L21.9969 346.994L21 345.997V344.997L20.9969 344.994L20 343.997V342.997V341.997L19.9969 341.994L19 340.997V339.997L18.9969 339.994L18 338.997V337.997L17.9969 337.994L17 336.997V335.997V334.997L16.9969 334.994L16 333.997V332.997L15.9969 332.994L15 331.997V330.997L14.9969 330.994L14 329.997V328.997V327.997L13.9969 327.994L13 326.997V325.997V324.997L12.9969 324.994L12 323.997V322.997V321.997L11.9969 321.994L11 320.997V319.997L10.9969 319.994L10 318.997V317.997V316.997V315.997L9.99686 315.994L9 314.997V313.997V312.997L8.99686 312.994L8 311.997V310.997V309.997L7.99686 309.994L7 308.997V307.997V306.997L6.99686 306.994L6 305.997V304.997V303.997V302.997L5.99686 302.994L5 301.997V300.997V299.997V298.997V297.997L4.99686 297.994L4 296.997V295.997V294.997V293.997V292.997L3.99686 292.994L3 291.997V290.997V289.997V288.997V287.997V286.997L2.99686 286.994L2 285.997V284.997V283.997V282.997V281.997V280.997L1.99686 280.994L1 279.997V278.997V277.997V276.997V275.997V274.997V273.997V272.997V271.997V270.997V269.997L0.996864 269.994L0 268.997V267.997V266.997V265.997V264.997V263.997V262.997V261.997V260.997V259.997V258.997V257.997V256.997V255.997V254.997V253.997V252.997V251.997V250.997V249.997V248.997V247.997V246.997V245.997V244.997V243.997V242.997V241.997V240.997V239.997V238.997V237.997V236.997V235.997V234.997V233.997V232.997V231.997V230.997V229.997V228.997V227.997L0.996864 227L1 226.997V225.997V224.997V223.997V222.997V221.997V220.997V219.997V218.997V217.997V216.997V215.997V214.997V213.997L1.99686 213L2 212.997V211.997V210.997V209.997V208.997L2.99686 208L3 207.997V206.997V205.997V204.997V203.997V202.997V201.997L3.99686 201L4 200.997V199.997V198.997V197.997V196.997L4.99686 196L5 195.997V194.997V193.997V192.997V191.997L5.99686 191L6 190.997V189.997V188.997V187.997V186.997L6.99686 186L7 185.997V184.997V183.997V182.997V181.997L7.99686 181L8 180.997V179.997V178.997V177.997L8.99686 177L9 176.997V175.997V174.997L9.99686 174L10 173.997V172.997V171.997V170.997L10.9969 170L11 169.997V168.997V167.997L11.9969 167L12 166.997V165.997L12.9969 165L13 164.997V163.997V162.997L13.9969 162L14 161.997V160.997L14.9969 160L15 159.997V158.997V157.997L15.9969 157L16 156.997V155.997L16.9969 155L17 154.997V153.997V152.997L17.9969 152L18 151.997V150.997L18.9969 150L19 149.997V148.997L19.9969 148L20 147.997V146.997L20.9969 146L21 145.997V144.997L21.9969 144L22 143.997V142.997L22.9969 142L23 141.997V140.997L23.9969 140L24 139.997V138.997L24.9969 138L25 137.997V136.997L25.9969 136L26 135.997V134.997L26.9969 134L27 133.997L27.9969 133L28 132.997V131.997L28.9969 131L29 130.997V129.997L29.9969 129L30 128.997V127.997L30.9969 127L31 126.997L31.9969 126L32 125.997V124.997L32.9969 124L33 123.997V122.997L33.9969 122L34 121.997L34.9969 121L35 120.997V119.997L35.9969 119L36 118.997L36.9969 118L37 117.997V116.997L37.9969 116L38 115.997L38.9969 115L39 114.997V113.997L39.9969 113L40 112.997L40.9969 112L41 111.997V110.997L41.9969 110L42 109.997L42.9969 109L43 108.997L43.9969 108L44 107.997V106.997L44.9969 106L45 105.997L45.9969 105L46 104.997L46.9969 104L47 103.997L47.9969 103L48 102.997L48.9969 102L49 101.997L49.9969 101L50 100.997V99.9969L50.9969 99L51 98.9969L51.9969 98L52 97.9969V96.9969L52.9969 96L53 95.9969L53.9969 95L54 94.9969L54.9969 94L55 93.9969L55.9969 93L56 92.9969L56.9969 92L57 91.9969L57.9969 91L58 90.9969L58.9969 90L59 89.9969L59.9969 89L60 88.9969L60.9969 88L61 87.9969L61.9969 87L62 86.9969L62.9969 86L63 85.9969L63.9969 85L64 84.9969L64.9969 84L65 83.9969L65.9969 83L66 82.9969L66.9969 82L67 81.9969L67.9969 81L68 80.9969L68.9969 80L69 79.9969L69.9969 79H70.9969L71 78.9969L71.9969 78L72 77.9969L72.9969 77L73 76.9969L73.9969 76L74 75.9969L74.9969 75L75 74.9969L75.9969 74L76 73.9969L76.9969 73L77 72.9969L77.9969 72L78 71.9969L78.9969 71H79.9969L80 70.9969L80.9969 70L81 69.9969L81.9969 69L82 68.9969L82.9969 68L83 67.9969L83.9969 67L84 66.9969L84.9969 66H85.9969L86 65.9969L86.9969 65L87 64.9969L87.9969 64L88 63.9969L88.9969 63H89.9969L90 62.9969L90.9969 62L91 61.9969L91.9969 61L92 60.9969L92.9969 60H93.9969L94 59.9969L94.9969 59L95 58.9969L95.9969 58H96.9969L97 57.9969L97.9969 57L98 56.9969L98.9969 56L99 55.9969L99.9969 55H100.997L101 54.9969L101.997 54L102 53.9969L102.997 53H103.997L104 52.9969L104.997 52L105 51.9969L105.997 51H106.997L107 50.9969L107.997 50L108 49.9969L108.997 49H109.997L110 48.9969L110.997 48H111.997L112 47.9969L112.997 47L113 46.9969L113.997 46H114.997L115 45.9969L115.997 45L116 44.9969L116.997 44H117.997L118 43.9969L118.997 43H119.997L120 42.9969L120.997 42L121 41.9969L121.997 41H122.997L123 40.9969L123.997 40H124.997L125 39.9969L125.997 39H126.997L127 38.9969L127.997 38H128.997L129 37.9969L129.997 37L130 36.9969L130.997 36H131.997L132 35.9969L132.997 35H133.997L134 34.9969L134.997 34H135.997L136 33.9969L136.997 33H137.997L138 32.9969L138.997 32H139.997L140 31.9969L140.997 31H141.997L142 30.9969L142.997 30H143.997L144 29.9969L144.997 29H145.997L146 28.9969L146.997 28H147.997L148 27.9969L148.997 27H149.997H150.997L151 26.9969L151.997 26H152.997L153 25.9969L153.997 25H154.997H155.997L156 24.9969L156.997 24H157.997L158 23.9969L158.997 23H159.997H160.997L161 22.9969L161.997 22H162.997L163 21.9969L163.997 21H164.997H165.997L166 20.9969L166.997 20H167.997L168 19.9969L168.997 19H169.997H170.997L171 18.9969L171.997 18H172.997H173.997L174 17.9969L174.997 17H175.997H176.997H177.997L178 16.9969L178.997 16H179.997H180.997L181 15.9969L181.997 15H182.997H183.997H184.997L185 14.9969L185.997 14H186.997H187.997L188 13.9969L188.997 13H189.997H190.997L191 12.9969L191.997 12H192.997H193.997L194 11.9969L194.997 11H195.997H196.997H197.997L198 10.9969L198.997 10H199.997H200.997H201.997L202 9.99686L202.997 9H203.997H204.997H205.997L206 8.99686L206.997 8H207.997H208.997H209.997H210.997L211 7.99686L211.997 7H212.997H213.997H214.997H215.997L216 6.99686L216.997 6H217.997H218.997H219.997H220.997L221 5.99686L221.997 5H222.997H223.997H224.997H225.997H226.997L227 4.99686L227.997 4H228.997H229.997H230.997L231 3.99686L231.997 3H232.997H233.997H234.997H235.997H236.997H237.997H238.997L239 2.99686L239.997 2H240.997H241.997H242.997H243.997H244.997H245.997H246.997L247 1.99686L247.997 1H248.997H249.997H250.997H251.997H252.997H253.997H254.997L255 0.996864L255.997 0H256.997H257.997H258.997H259.997H260.997H261.997H262.997H263.997H264.997H265.997H266.997H267.997H268.997H269.997H270.997H271.997H272.997H273.997H274.997H275.997H276.997H277.997H278.997H279.997H280.997H281.997H282.997H283.997H284.997H285.997H286.997H287.997H288.997L289.994 0.996864L289.997 1H290.997H291.997H292.997H293.997H294.997H295.997L296.994 1.99686L296.997 2H297.997H298.997H299.997H300.997H301.997H302.997H303.997L304.994 2.99686L304.997 3H305.997H306.997H307.997H308.997H309.997H310.997L311.994 3.99686L311.997 4H312.997H313.997H314.997H315.997L316.994 4.99686L316.997 5H317.997H318.997H319.997H320.997L321.994 5.99686L321.997 6H322.997H323.997H324.997H325.997L326.994 6.99686L326.997 7H327.997H328.997H329.997L330.994 7.99686L330.997 8H331.997H332.997H333.997L334.994 8.99686L334.997 9H335.997H336.997L337.994 9.99686L337.997 10H338.997H339.997L340.994 10.9969L340.997 11H341.997H342.997L343.994 11.9969L343.997 12H344.997H345.997L346.994 12.9969L346.997 13H347.997H348.997L349.994 13.9969L349.997 14H350.997L351.994 14.9969L351.997 15H352.997H353.997L354.994 15.9969L354.997 16H355.997L356.994 16.9969L356.997 17H357.997H358.997L359.994 17.9969L359.997 18H360.997L361.994 18.9969L361.997 19H362.997L363.994 19.9969L363.997 20H364.997L365.994 20.9969L365.997 21H366.997H367.997L368.994 21.9969L368.997 22L369.994 22.9969L369.997 23H370.997L371.994 23.9969L371.997 24H372.997L373.994 24.9969L373.997 25H374.997L375.994 25.9969L375.997 26H376.997L377.994 26.9969L377.997 27H378.997L379.994 27.9969L379.997 28H380.997L381.994 28.9969L381.997 29L382.994 29.9969L382.997 30H383.997L384.994 30.9969L384.997 31H385.997L386.994 31.9969L386.997 32L387.994 32.9969L387.997 33H388.997L389.994 33.9969L389.997 34L390.994 34.9969L390.997 35H391.997L392.994 35.9969L392.997 36L393.994 36.9969L393.997 37H394.997L395.994 37.9969L395.997 38L396.994 38.9969L396.997 39H397.997L398.994 39.9969L398.997 40L399.994 40.9969L399.997 41H400.997L401.994 41.9969L401.997 42L402.994 42.9969L402.997 43L403.994 43.9969L403.997 44H404.997L405.994 44.9969L405.997 45L406.994 45.9969L406.997 46L407.994 46.9969L407.997 47L408.994 47.9969L408.997 48L409.994 48.9969L409.997 49H410.997L411.994 49.9969L411.997 50L412.994 50.9969L412.997 51L413.994 51.9969L413.997 52L414.994 52.9969L414.997 53L415.994 53.9969L415.997 54L416.994 54.9969L416.997 55H417.997L418.994 55.9969L418.997 56L419.994 56.9969L419.997 57L420.994 57.9969L420.997 58L421.994 58.9969L421.997 59L422.994 59.9969L422.997 60L423.994 60.9969L423.997 61L424.994 61.9969L424.997 62L425.994 62.9969L425.997 63L426.994 63.9969L426.997 64L427.994 64.9969L427.997 65L428.994 65.9969L428.997 66L429.994 66.9969L429.997 67L430.994 67.9969V68.9969L430.997 69L431.994 69.9969L431.997 70L432.994 70.9969L432.997 71L433.994 71.9969L433.997 72L434.994 72.9969L434.997 73L435.994 73.9969L435.997 74L436.994 74.9969L436.997 75L437.994 75.9969L437.997 76L438.994 76.9969L438.997 77L439.994 77.9969L439.997 78L440.994 78.9969L440.997 79L441.994 79.9969L441.997 80L442.994 80.9969V81.9969L442.997 82L443.994 82.9969L443.997 83L444.994 83.9969L444.997 84L445.994 84.9969L445.997 85L446.994 85.9969L446.997 86L447.994 86.9969L447.997 87L448.994 87.9969V88.9969L448.997 89L449.994 89.9969L449.997 90L450.994 90.9969L450.997 91L451.994 91.9969L451.997 92L452.994 92.9969L452.997 93L453.994 93.9969L453.997 94L454.994 94.9969L454.997 95L455.994 95.9969L455.997 96L456.994 96.9969L456.997 97L457.994 97.9969L457.997 98L458.994 98.9969V99.9969L458.997 100L459.994 100.997L459.997 101L460.994 101.997L460.997 102L461.994 102.997L461.997 103L462.994 103.997V104.997L462.997 105L463.994 105.997L463.997 106L464.994 106.997L464.997 107L465.994 107.997L465.997 108L466.994 108.997V109.997L466.997 110L467.994 110.997L467.997 111L468.994 111.997L468.997 112L469.994 112.997L469.997 113L470.994 113.997V114.997L470.997 115L471.994 115.997L471.997 116L472.994 116.997L472.997 117L473.994 117.997V118.997L473.997 119L474.994 119.997L474.997 120L475.994 120.997V121.997L475.997 122L476.994 122.997L476.997 123L477.994 123.997V124.997L477.997 125L478.994 125.997L478.997 126L479.994 126.997V127.997L479.997 128L480.994 128.997L480.997 129L481.994 129.997V130.997L481.997 131L482.994 131.997L482.997 132L483.994 132.997V133.997L483.997 134L484.994 134.997L484.997 135L485.994 135.997V136.997L485.997 137L486.994 137.997L486.997 138L487.994 138.997V139.997L487.997 140L488.994 140.997V141.997L488.997 142L489.994 142.997L489.997 143L490.994 143.997V144.997L490.997 145L491.994 145.997L491.997 146L492.994 146.997V147.997L492.997 148L493.994 148.997V149.997L493.997 150L494.994 150.997V151.997L494.997 152L495.994 152.997V153.997L495.997 154L496.994 154.997L496.997 155L497.994 155.997V156.997L497.997 157L498.994 157.997V158.997L498.997 159L499.994 159.997V160.997L499.997 161L500.994 161.997L500.997 162L501.994 162.997V163.997L501.997 164L502.994 164.997V165.997L502.997 166L503.994 166.997V167.997L503.997 168L504.994 168.997V169.997L504.997 170L505.994 170.997V171.997L505.997 172L506.994 172.997V173.997L506.997 174L507.994 174.997V175.997L507.997 176L508.994 176.997V177.997L508.997 178L509.994 178.997V179.997L509.997 180L510.994 180.997V181.997L510.997 182L511.994 182.997V183.997L511.997 184L512.994 184.997V185.997V186.997L512.997 187L513.994 187.997V188.997V189.997L513.997 190L514.994 190.997V191.997V192.997V193.997V194.997V195.997V196.997L513.997 197.994L513.994 197.997V198.997L512.997 199.994L512.994 199.997V200.997L511.997 201.994L511.994 201.997L510.997 202.994L510.994 202.997L509.997 203.994L509.994 203.997L508.997 204.994H507.997L507.994 204.997L506.997 205.994L506.994 205.997L505.997 206.994L505.994 206.997L504.997 207.994H503.997L503.994 207.997L502.997 208.994L502.994 208.997L501.997 209.994L501.994 209.997L500.997 210.994H499.997L499.994 210.997L498.997 211.994L498.994 211.997L497.997 212.994L497.994 212.997L496.997 213.994H495.997L495.994 213.997L494.997 214.994L494.994 214.997L493.997 215.994H492.997L492.994 215.997L491.997 216.994L491.994 216.997L490.997 217.994L490.994 217.997L489.997 218.994L489.994 218.997L488.997 219.994H487.997L487.994 219.997L486.997 220.994L486.994 220.997L485.997 221.994L485.994 221.997L484.997 222.994H483.997L483.994 222.997L482.997 223.994L482.994 223.997L481.997 224.994L481.994 224.997L480.997 225.994H479.997L479.994 225.997L478.997 226.994L478.994 226.997L477.997 227.994L477.994 227.997L476.997 228.994H475.997L475.994 228.997L474.997 229.994L474.994 229.997L473.997 230.994L473.994 230.997L472.997 231.994L472.994 231.997L471.997 232.994H470.997L470.994 232.997L469.997 233.994L469.994 233.997L468.997 234.994H467.997L467.994 234.997L466.997 235.994L466.994 235.997L465.997 236.994L465.994 236.997L464.997 237.994H463.997L463.994 237.997L462.997 238.994L462.994 238.997L461.997 239.994L461.994 239.997L460.997 240.994H459.997L459.994 240.997L458.997 241.994L458.994 241.997L457.997 242.994L457.994 242.997L456.997 243.994L456.994 243.997L455.997 244.994H454.997L454.994 244.997L453.997 245.994L453.994 245.997L452.997 246.994H451.997L451.994 246.997L450.997 247.994L450.994 247.997L449.997 248.994H448.997L448.994 248.997L447.997 249.994L447.994 249.997L446.997 250.994H445.997H444.997H443.997H442.997H441.997H440.997H439.997L439 249.997L438.997 249.994L438 248.997L437.997 248.994L437 247.997L436.997 247.994L436 246.997L435.997 246.994L435 245.997L434.997 245.994L434 244.997L433.997 244.994L433 243.997L432.997 243.994L432 242.997V241.997L431.997 241.994L431 240.997L430.997 240.994L430 239.997L429.997 239.994L429 238.997V237.997L428.997 237.994L428 236.997L427.997 236.994L427 235.997L426.997 235.994L426 234.997V233.997L425.997 233.994L425 232.997L424.997 232.994L424 231.997L423.997 231.994L423 230.997V229.997L422.997 229.994L422 228.997L421.997 228.994L421 227.997L420.997 227.994L420 226.997L419.997 226.994L419 225.997V224.997L418.997 224.994L418 223.997L417.997 223.994L417 222.997L416.997 222.994L416 221.997V220.997L415.997 220.994L415 219.997L414.997 219.994L414 218.997L413.997 218.994L413 217.997L412.997 217.994L412 216.997L411.997 216.994L411 215.997V214.997L410.997 214.994L410 213.997L409.997 213.994L409 212.997L408.997 212.994L408 211.997L407.997 211.994L407 210.997L406.997 210.994L406 209.997L405.997 209.994L405 208.997V207.997L404.997 207.994L404 206.997L403.997 206.994L403 205.997V204.997L402.997 204.994L402 203.997L401.997 203.994L401 202.997L400.997 202.994L400 201.997L399.997 201.994L399 200.997L398.997 200.994L398 199.997L397.997 199.994L397 198.997L396.997 198.994L396 197.997L395.997 197.994L395 196.997L394.997 196.994L394 195.997L393.997 195.994L393 194.997L392.997 194.994L392 193.997L391.997 193.994L391 192.997L390.997 192.994L390 191.997L389.997 191.994L389 190.997L388.997 190.994L388 189.997L387.997 189.994L387 188.997L386.997 188.994L386 187.997L385.997 187.994L385 186.997L384.997 186.994L384 185.997L383.997 185.994L383 184.997L382.997 184.994L382 183.997L381.997 183.994L381 182.997L380.997 182.994L380 181.997L379.997 181.994L379 180.997L378.997 180.994L378 179.997V178.997L377.997 178.994L377 177.997L376.997 177.994L376 176.997L375.997 176.994L375 175.997L374.997 175.994L374 174.997L373.997 174.994L373 173.997L372.997 173.994L372 172.997L371.997 172.994L371 171.997L370.997 171.994L370 170.997L369.997 170.994L369 169.997L368.997 169.994L368 168.997L367.997 168.994L367 167.997L366.997 167.994L366 166.997L365.997 166.994L365 165.997L364.997 165.994L364 164.997L363.997 164.994L363 163.997L362.997 163.994L362 162.997L361.997 162.994L361 161.997L360.997 161.994L360 160.997L359.997 160.994H358.997L358 159.997L357.997 159.994L357 158.997L356.997 158.994L356 157.997L355.997 157.994L355 156.997L354.997 156.994L354 155.997L353.997 155.994H352.997L352 154.997L351.997 154.994L351 153.997L350.997 153.994L350 152.997L349.997 152.994L349 151.997L348.997 151.994H347.997L347 150.997L346.997 150.994L346 149.997L345.997 149.994H344.997L344 148.997L343.997 148.994L343 147.997L342.997 147.994H341.997L341 146.997L340.997 146.994L340 145.997L339.997 145.994H338.997L338 144.997L337.997 144.994L337 143.997L336.997 143.994H335.997L335 142.997L334.997 142.994H333.997L333 141.997L332.997 141.994L332 140.997L331.997 140.994H330.997L330 139.997L329.997 139.994H328.997L328 138.997L327.997 138.994H326.997L326 137.997L325.997 137.994H324.997L324 136.997L323.997 136.994H322.997H321.997L321 135.997L320.997 135.994H319.997L319 134.997L318.997 134.994H317.997L317 133.997L316.997 133.994H315.997H314.997L314 132.997L313.997 132.994H312.997L312 131.997L311.997 131.994H310.997H309.997L309 130.997L308.997 130.994H307.997L307 129.997L306.997 129.994H305.997H304.997L304 128.997L303.997 128.994H302.997H301.997L301 127.997L300.997 127.994H299.997H298.997L298 126.997L297.997 126.994H296.997H295.997H294.997L294 125.997L293.997 125.994H292.997H291.997H290.997L290 124.997L289.997 124.994H288.997H287.997H286.997L286 123.997L285.997 123.994H284.997H283.997H282.997H281.997H280.997H279.997H278.997H277.997L277 122.997L276.997 122.994H275.997H274.997H273.997H272.997L272 121.997L271.997 121.994H270.997H269.997H268.997H267.997H266.997H265.997H264.997H263.997H262.997H261.997H260.997H259.997H258.997H257.997H256.997L256.994 121.997L255.997 122.994H254.997H253.997H252.997H251.997L251.994 122.997L250.997 123.994H249.997H248.997H247.997H246.997H245.997H244.997H243.997H242.997H241.997H240.997H239.997H238.997L238.994 123.997L237.997 124.994H236.997H235.997H234.997H233.997L233.994 124.997L232.997 125.994H231.997H230.997H229.997H228.997L228.994 125.997L227.997 126.994H226.997H225.997H224.997L224.994 126.997L223.997 127.994H222.997H221.997L221.994 127.997L220.997 128.994H219.997H218.997H217.997L217.994 128.997L216.997 129.994H215.997L215.994 129.997L214.997 130.994H213.997L213.994 130.997L212.997 131.994H211.997L211.994 131.997L210.997 132.994H209.997L209.994 132.997L208.997 133.994H207.997L207.994 133.997L206.997 134.994H205.997L205.994 134.997L204.997 135.994H203.997L203.994 135.997L202.997 136.994H201.997L201.994 136.997L200.997 137.994H199.997L199.994 137.997L198.997 138.994H197.997L197.994 138.997L196.997 139.994H195.997L195.994 139.997L194.997 140.994L194.994 140.997L193.997 141.994H192.997L192.994 141.997L191.997 142.994H190.997L190.994 142.997L189.997 143.994L189.994 143.997L188.997 144.994H187.997L187.994 144.997L186.997 145.994L186.994 145.997L185.997 146.994H184.997L184.994 146.997L183.997 147.994L183.994 147.997L182.997 148.994H181.997L181.994 148.997L180.997 149.994L180.994 149.997L179.997 150.994L179.994 150.997L178.997 151.994H177.997L177.994 151.997L176.997 152.994L176.994 152.997L175.997 153.994L175.994 153.997L174.997 154.994H173.997L173.994 154.997L172.997 155.994L172.994 155.997L171.997 156.994L171.994 156.997L170.997 157.994L170.994 157.997L169.997 158.994L169.994 158.997L168.997 159.994H167.997L167.994 159.997L166.997 160.994L166.994 160.997L165.997 161.994L165.994 161.997L164.997 162.994L164.994 162.997L163.997 163.994L163.994 163.997L162.997 164.994L162.994 164.997L161.997 165.994L161.994 165.997L160.997 166.994L160.994 166.997L159.997 167.994L159.994 167.997L158.997 168.994L158.994 168.997L157.997 169.994L157.994 169.997L156.997 170.994L156.994 170.997L155.997 171.994L155.994 171.997L154.997 172.994L154.994 172.997L153.997 173.994L153.994 173.997V174.997L152.997 175.994L152.994 175.997L151.997 176.994L151.994 176.997L150.997 177.994L150.994 177.997L149.997 178.994L149.994 178.997L148.997 179.994L148.994 179.997V180.997L147.997 181.994L147.994 181.997L146.997 182.994L146.994 182.997L145.997 183.994L145.994 183.997V184.997L144.997 185.994L144.994 185.997L143.997 186.994L143.994 186.997L142.997 187.994L142.994 187.997V188.997L141.997 189.994L141.994 189.997L140.997 190.994L140.994 190.997L139.997 191.994L139.994 191.997V192.997L138.997 193.994L138.994 193.997L137.997 194.994L137.994 194.997V195.997L136.997 196.994L136.994 196.997V197.997L135.997 198.994L135.994 198.997V199.997L134.997 200.994L134.994 200.997V201.997L133.997 202.994L133.994 202.997L132.997 203.994L132.994 203.997V204.997L131.997 205.994L131.994 205.997V206.997L130.997 207.994L130.994 207.997V208.997L129.997 209.994L129.994 209.997V210.997L128.997 211.994L128.994 211.997V212.997V213.997L127.997 214.994L127.994 214.997V215.997L126.997 216.994L126.994 216.997V217.997V218.997L125.997 219.994L125.994 219.997V220.997L124.997 221.994L124.994 221.997V222.997V223.997L123.997 224.994L123.994 224.997V225.997L122.997 226.994L122.994 226.997V227.997V228.997L121.997 229.994L121.994 229.997V230.997V231.997L120.997 232.994L120.994 232.997V233.997V234.997L119.997 235.994L119.994 235.997V236.997V237.997V238.997L118.997 239.994L118.994 239.997V240.997V241.997V242.997L117.997 243.994L117.994 243.997V244.997V245.997V246.997L116.997 247.994L116.994 247.997V248.997V249.997V250.997V251.997L115.997 252.994L115.994 252.997V253.997V254.997V255.997V256.997V257.997V258.997V259.997L114.997 260.994L114.994 260.997V261.997V262.997V263.997V264.997V265.997V266.997V267.997V268.997L113.997 269.994L113.994 269.997V270.997L113.997 271L114.994 271.997V272.997V273.997V274.997V275.997V276.997V277.997V278.997L114.997 279L115.994 279.997V280.997V281.997V282.997V283.997V284.997L115.997 285L116.994 285.997V286.997V287.997V288.997V289.997L116.997 290L117.994 290.997V291.997V292.997V293.997L117.997 294L118.994 294.997V295.997V296.997L118.997 297L119.994 297.997V298.997V299.997L119.997 300L120.994 300.997V301.997V302.997V303.997L120.997 304L121.994 304.997V305.997V306.997L121.997 307L122.994 307.997V308.997L122.997 309L123.994 309.997V310.997V311.997L123.997 312L124.994 312.997V313.997L124.997 314L125.994 314.997V315.997L125.997 316L126.994 316.997V317.997L126.997 318L127.994 318.997L127.997 319L128.994 319.997V320.997L128.997 321L129.994 321.997V322.997L129.997 323L130.994 323.997L130.997 324L131.994 324.997L131.997 325L132.994 325.997V326.997L132.997 327L133.994 327.997L133.997 328L134.994 328.997V329.997L134.997 330L135.994 330.997L135.997 331L136.994 331.997L136.997 332L137.994 332.997L137.997 333L138.994 333.997V334.997L138.997 335L139.994 335.997L139.997 336L140.994 336.997L140.997 337L141.994 337.997L141.997 338L142.994 338.997L142.997 339L143.994 339.997L143.997 340L144.994 340.997L144.997 341L145.994 341.997L145.997 342L146.994 342.997L146.997 343L147.994 343.997L147.997 344L148.994 344.997L148.997 345L149.994 345.997L149.997 346H150.997L151.994 346.997L151.997 347L152.994 347.997L152.997 348L153.994 348.997L153.997 349L154.994 349.997L154.997 350L155.994 350.997L155.997 351H156.997L157.994 351.997L157.997 352L158.994 352.997L158.997 353L159.994 353.997L159.997 354H160.997L161.994 354.997L161.997 355L162.994 355.997L162.997 356H163.997L164.994 356.997L164.997 357L165.994 357.997L165.997 358H166.997L167.994 358.997L167.997 359L168.994 359.997L168.997 360H169.997L170.994 360.997L170.997 361H171.997L172.994 361.997L172.997 362H173.997L174.994 362.997L174.997 363H175.997L176.994 363.997L176.997 364H177.997L178.994 364.997L178.997 365H179.997L180.994 365.997L180.997 366H181.997L182.994 366.997L182.997 367H183.997L184.994 367.997L184.997 368H185.997L186.994 368.997L186.997 369H187.997H188.997L189.994 369.997L189.997 370H190.997L191.994 370.997L191.997 371H192.997H193.997L194.994 371.997L194.997 372H195.997H196.997L197.994 372.997L197.997 373H198.997H199.997L200.994 373.997L200.997 374H201.997H202.997H203.997H204.997H205.997H206.997H207.997L208.994 374.997L208.997 375H209.997H210.997H211.997H212.997H213.997H214.997L215.994 375.997L215.997 376H216.997H217.997H218.997H219.997H220.997H221.997H222.997H223.997H224.997H225.997H226.997H227.997H228.997H229.997L230 375.997L230.997 375H231.997H232.997H233.997H234.997H235.997L236 374.997L236.997 374H237.997H238.997H239.997L240 373.997L240.997 373H241.997H242.997H243.997L244 372.997L244.997 372H245.997H246.997L247 371.997L247.997 371H248.997H249.997L250 370.997L250.997 370H251.997L252 369.997L252.997 369H253.997H254.997L255 368.997L255.997 368L256 367.997L256.997 367H257.997L258 366.997L258.997 366H259.997L260 365.997L260.997 365L261 364.997L261.997 364H262.997L263 363.997L263.997 363L264 362.997L264.997 362H265.997L266 361.997L266.997 361L267 360.997L267.997 360H268.997L269 359.997L269.997 359L270 358.997L270.997 358L271 357.997L271.997 357L272 356.997L272.997 356L273 355.997L273.997 355L274 354.997L274.997 354L275 353.997L275.997 353L276 352.997L276.997 352L277 351.997L277.997 351L278 350.997V349.997L278.997 349L279 348.997L279.997 348L280 347.997L280.997 347L281 346.997L281.997 346L282 345.997V344.997L282.997 344L283 343.997L283.997 343L284 342.997L284.997 342L285 341.997V340.997L285.997 340L286 339.997L286.997 339L287 338.997L287.997 338L288 337.997V336.997L288.997 336L289 335.997V334.997L289.997 334L290 333.997L290.997 333L291 332.997V331.997L291.997 331L292 330.997V329.997L292.997 329L293 328.997V327.997L293.997 327L294 326.997V325.997L294.997 325L295 324.997V323.997L295.997 323L296 322.997V321.997V320.997L296.997 320L297 319.997V318.997V317.997L297.997 317L298 316.997V315.997V314.997L298.997 314L299 313.997V312.997V311.997V310.997V309.997V308.997V307.997V306.997V305.997V304.997V303.997L299.997 303L300 302.997V301.997V300.997V299.997V298.997L299.997 298.994L299 297.997V296.997V295.997V294.997V293.997V292.997V291.997V290.997L298.997 290.994L298 289.997V288.997V287.997L297.997 287.994L297 286.997V285.997L296.997 285.994L296 284.997V283.997V282.997L295.997 282.994L295 281.997V280.997V279.997L294.997 279.994L294 278.997V277.997L293.997 277.994L293 276.997L292.997 276.994L292 275.997V274.997L291.997 274.994L291 273.997L290.997 273.994L290 272.997L289.997 272.994L289 271.997V270.997L288.997 270.994L288 269.997L287.997 269.994L287 268.997L286.997 268.994L286 267.997L285.997 267.994L285 266.997L284.997 266.994L284 265.997L283.997 265.994L283 264.997L282.997 264.994L282 263.997L281.997 263.994L281 262.997L280.997 262.994H279.997L279 261.997L278.997 261.994L278 260.997L277.997 260.994L277 259.997L276.997 259.994H275.997L275 258.997L274.997 258.994L274 257.997L273.997 257.994H272.997L272 256.997L271.997 256.994H270.997L270 255.997L269.997 255.994H268.997L268 254.997L267.997 254.994H266.997H265.997L265 253.997L264.997 253.994H263.997H262.997L262 252.997L261.997 252.994H260.997H259.997H258.997H257.997H256.997H255.997H254.997H253.997H252.997H251.997H250.997L250.994 252.997L249.997 253.994H248.997H247.997H246.997L246.994 253.997L245.997 254.994H244.997L244.994 254.997L243.997 255.994H242.997H241.997L241.994 255.997L240.997 256.994L240.994 256.997L239.997 257.994H238.997L238.994 257.997L237.997 258.994L237.994 258.997L236.997 259.994H235.997L235.994 259.997L234.997 260.994L234.994 260.997L233.997 261.994L233.994 261.997L232.997 262.994L232.994 262.997L231.997 263.994L231.994 263.997L230.997 264.994L230.994 264.997L229.997 265.994L229.994 265.997V266.997L228.997 267.994L228.994 267.997L227.997 268.994L227.994 268.997L226.997 269.994L226.994 269.997V270.997L225.997 271.994L225.994 271.997L224.997 272.994L224.994 272.997V273.997L223.997 274.994L223.994 274.997V275.997L222.997 276.994L222.994 276.997V277.997L221.997 278.994L221.994 278.997V279.997L220.997 280.994L220.994 280.997V281.997L219.997 282.994L219.994 282.997V283.997L218.997 284.994L218.994 284.997V285.997L217.997 286.994L217.994 286.997V287.997V288.997L216.997 289.994L216.994 289.997V290.997V291.997L215.997 292.994L215.994 292.997V293.997V294.997L214.997 295.994L214.994 295.997V296.997V297.997V298.997V299.997L213.997 300.994L213.994 300.997V301.997V302.997V303.997V304.997V305.997V306.997V307.997L213.997 308L214.994 308.997V309.997V310.997V311.997L214.997 312L215.994 312.997V313.997V314.997V315.997V316.997V317.997V318.997V319.997L214.997 320.994L214.994 320.997V321.997L213.997 322.994L213.994 322.997L212.997 323.994H211.997L211.994 323.997L210.997 324.994H209.997H208.997H207.997H206.997H205.997H204.997L204 323.997L203.997 323.994H202.997H201.997H200.997L200 322.997L199.997 322.994H198.997H197.997H196.997H195.997L195 321.997L194.997 321.994H193.997H192.997H191.997L191 320.997L190.997 320.994H189.997H188.997H187.997L187 319.997L186.997 319.994H185.997H184.997L184 318.997L183.997 318.994H182.997H181.997L181 317.997L180.997 317.994H179.997H178.997L178 316.997L177.997 316.994H176.997H175.997L175 315.997L174.997 315.994H173.997H172.997L172 314.997L171.997 314.994H170.997H169.997L169 313.997L168.997 313.994H167.997L167 312.997L166.997 312.994H165.997H164.997L164 311.997L163.997 311.994H162.997L162 310.997L161.997 310.994H160.997H159.997L159 309.997L158.997 309.994H157.997L157 308.997L156.997 308.994H155.997H154.997L154 307.997L153.997 307.994H152.997H151.997L151 306.997L150.997 306.994H149.997H148.997H147.997L147 305.997L146.997 305.994H145.997H144.997L144 304.997L143.997 304.994H142.997L142 303.997L141.997 303.994H140.997L140 302.997L139.997 302.994L139 301.997L138.997 301.994L138 300.997L137.997 300.994L137 299.997V298.997L136.997 298.994L136 297.997V296.997V295.997L135.997 295.994L135 294.997V293.997V292.997V291.997V290.997V289.997V288.997V287.997V286.997L135.997 286L136 285.997V284.997V283.997V282.997V281.997V280.997L136.997 280L137 279.997V278.997V277.997V276.997V275.997V274.997V273.997V272.997L137.997 272L138 271.997V270.997V269.997V268.997L138.997 268L139 267.997V266.997V265.997V264.997V263.997L139.997 263L140 262.997V261.997V260.997V259.997L140.997 259L141 258.997V257.997V256.997V255.997V254.997L141.997 254L142 253.997V252.997V251.997V250.997L142.997 250L143 249.997V248.997V247.997V246.997L143.997 246L144 245.997V244.997V243.997V242.997L144.997 242L145 241.997V240.997V239.997V238.997L145.997 238L146 237.997V236.997V235.997L146.997 235L147 234.997V233.997V232.997L147.997 232L148 231.997V230.997V229.997L148.997 229L149 228.997V227.997L149.997 227L150 226.997V225.997L150.997 225L151 224.997V223.997V222.997L151.997 222L152 221.997V220.997L152.997 220L153 219.997V218.997L153.997 218L154 217.997V216.997L154.997 216L155 215.997V214.997L155.997 214L156 213.997V212.997L156.997 212L157 211.997L157.997 211L158 210.997V209.997L158.997 209L159 208.997L159.997 208L160 207.997V206.997L160.997 206L161 205.997L161.997 205L162 204.997V203.997L162.997 203L163 202.997L163.997 202L164 201.997V200.997L164.997 200L165 199.997L165.997 199L166 198.997L166.997 198L167 197.997V196.997L167.997 196L168 195.997L168.997 195L169 194.997L169.997 194L170 193.997L170.997 193L171 192.997L171.997 192L172 191.997L172.997 191L173 190.997L173.997 190L174 189.997L174.997 189L175 188.997L175.997 188L176 187.997L176.997 187L177 186.997L177.997 186L178 185.997L178.997 185L179 184.997L179.997 184L180 183.997L180.997 183L181 182.997L181.997 182H182.997L183 181.997L183.997 181L184 180.997L184.997 180H185.997L186 179.997L186.997 179L187 178.997L187.997 178L188 177.997L188.997 177H189.997L190 176.997L190.997 176L191 175.997L191.997 175H192.997L193 174.997L193.997 174H194.997L195 173.997L195.997 173L196 172.997L196.997 172H197.997L198 171.997L198.997 171H199.997L200 170.997L200.997 170H201.997L202 169.997L202.997 169H203.997L204 168.997L204.997 168H205.997H206.997L207 167.997L207.997 167H208.997L209 166.997L209.997 166H210.997L211 165.997L211.997 165H212.997H213.997L214 164.997L214.997 164H215.997L216 163.997L216.997 163H217.997H218.997L219 162.997L219.997 162H220.997H221.997L222 161.997L222.997 161H223.997H224.997L225 160.997L225.997 160H226.997H227.997L228 159.997L228.997 159H229.997H230.997H231.997L232 158.997L232.997 158H233.997H234.997H235.997H236.997H237.997H238.997H239.997H240.997L241 157.997L241.997 157H242.997H243.997H244.997H245.997H246.997L247 156.997L247.997 156H248.997H249.997H250.997H251.997H252.997H253.997H254.997H255.997L256.994 156.997L256.997 157H257.997H258.997H259.997H260.997H261.997L262.994 157.997L262.997 158H263.997H264.997H265.997H266.997H267.997H268.997H269.997H270.997L271.994 158.997L271.997 159H272.997H273.997H274.997H275.997L276.994 159.997L276.997 160H277.997H278.997H279.997H280.997L281.994 160.997L281.997 161H282.997H283.997H284.997L285.994 161.997L285.997 162H286.997H287.997L288.994 162.997L288.997 163H289.997H290.997L291.994 163.997L291.997 164H292.997H293.997L294.994 164.997L294.997 165H295.997H296.997L297.994 165.997L297.997 166H298.997H299.997L300.994 166.997L300.997 167H301.997H302.997L303.994 167.997L303.997 168H304.997L305.994 168.997L305.997 169H306.997H307.997L308.994 169.997L308.997 170H309.997L310.994 170.997L310.997 171H311.997H312.997L313.994 171.997L313.997 172H314.997L315.994 172.997L315.997 173L316.994 173.997L316.997 174H317.997L318.994 174.997L318.997 175L319.994 175.997L319.997 176H320.997L321.994 176.997L321.997 177H322.997L323.994 177.997L323.997 178L324.994 178.997L324.997 179H325.997L326.994 179.997L326.997 180H327.997L328.994 180.997L328.997 181L329.994 181.997L329.997 182H330.997L331.994 182.997L331.997 183L332.994 183.997L332.997 184L333.994 184.997L333.997 185H334.997L335.994 185.997L335.997 186L336.994 186.997L336.997 187L337.994 187.997L337.997 188L338.994 188.997L338.997 189L339.994 189.997L339.997 190H340.997L341.994 190.997L341.997 191L342.994 191.997L342.997 192L343.994 192.997L343.997 193L344.994 193.997L344.997 194L345.994 194.997L345.997 195L346.994 195.997L346.997 196L347.994 196.997L347.997 197L348.994 197.997L348.997 198L349.994 198.997L349.997 199L350.994 199.997L350.997 200L351.994 200.997L351.997 201L352.994 201.997L352.997 202L353.994 202.997L353.997 203L354.994 203.997L354.997 204L355.994 204.997V205.997L355.997 206L356.994 206.997L356.997 207L357.994 207.997L357.997 208L358.994 208.997V209.997L358.997 210L359.994 210.997L359.997 211L360.994 211.997L360.997 212L361.994 212.997L361.997 213L362.994 213.997V214.997L362.997 215L363.994 215.997L363.997 216L364.994 216.997L364.997 217L365.994 217.997V218.997L365.997 219L366.994 219.997L366.997 220L367.994 220.997V221.997L367.997 222L368.994 222.997L368.997 223L369.994 223.997V224.997L369.997 225L370.994 225.997L370.997 226L371.994 226.997V227.997L371.997 228L372.994 228.997L372.997 229L373.994 229.997V230.997L373.997 231L374.994 231.997L374.997 232L375.994 232.997V233.997L375.997 234L376.994 234.997L376.997 235L377.994 235.997V236.997L377.997 237L378.994 237.997V238.997L378.997 239L379.994 239.997V240.997L379.997 241L380.994 241.997V242.997L380.997 243L381.994 243.997V244.997L381.997 245L382.994 245.997V246.997L382.997 247L383.994 247.997V248.997L383.997 249L384.994 249.997V250.997L384.997 251L385.994 251.997V252.997L385.997 253L386.994 253.997V254.997L386.997 255L387.994 255.997V256.997V257.997L387.997 258L388.994 258.997V259.997L388.997 260L389.994 260.997V261.997V262.997L389.997 263L390.994 263.997V264.997V265.997L390.997 266L391.994 266.997V267.997V268.997L391.997 269L392.994 269.997V270.997V271.997L392.997 272L393.994 272.997V273.997V274.997L393.997 275L394.994 275.997V276.997V277.997V278.997L394.997 279L395.994 279.997V280.997V281.997L395.997 282L396.994 282.997V283.997V284.997V285.997L396.997 286L397.994 286.997V287.997V288.997V289.997L397.997 290L398.994 290.997V291.997V292.997V293.997L398.997 294L399.994 294.997V295.997V296.997V297.997V298.997V299.997V300.997L399.997 301L400.994 301.997V302.997V303.997V304.997V305.997L400.997 306L401.994 306.997V307.997V308.997V309.997V310.997V311.997V312.997V313.997V314.997V315.997V316.997V317.997V318.997V319.997V320.997V321.997V322.997V323.997V324.997V325.997V326.997V327.997V328.997V329.997V330.997V331.997V332.997V333.997V334.997V335.997V336.997V337.997V338.997V339.997V340.997V341.997V342.997V343.997V344.997V345.997V346.997V347.997V348.997V349.997V350.997L400.997 351.994L400.994 351.997V352.997V353.997V354.997V355.997L399.997 356.994L399.994 356.997V357.997V358.997V359.997V360.997V361.997V362.997L398.997 363.994L398.994 363.997V364.997V365.997V366.997V367.997L397.997 368.994L397.994 368.997V369.997V370.997V371.997V372.997L396.997 373.994L396.994 373.997V374.997V375.997V376.997L395.997 377.994L395.994 377.997V378.997V379.997V380.997V381.997L394.997 382.994L394.994 382.997V383.997V384.997L393.997 385.994L393.994 385.997V386.997L392.997 387.994L392.994 387.997V388.997L391.997 389.994L391.994 389.997V390.997V391.997L390.997 392.994L390.994 392.997V393.997L389.997 394.994L389.994 394.997V395.997L388.997 396.994L388.994 396.997V397.997L387.997 398.994L387.994 398.997V399.997L386.997 400.994L386.994 400.997L385.997 401.994L385.994 401.997V402.997L384.997 403.994L384.994 403.997L383.997 404.994L383.994 404.997V405.997L382.997 406.994L382.994 406.997L381.997 407.994L381.994 407.997L380.997 408.994L380.994 408.997V409.997L379.997 410.994L379.994 410.997L378.997 411.994L378.994 411.997V412.997L377.997 413.994L377.994 413.997L376.997 414.994L376.994 414.997L375.997 415.994L375.994 415.997L374.997 416.994L374.994 416.997L373.997 417.994L373.994 417.997L372.997 418.994L372.994 418.997L371.997 419.994L371.994 419.997L370.997 420.994L370.994 420.997L369.997 421.994L369.994 421.997L368.997 422.994L368.994 422.997L367.997 423.994L367.994 423.997L366.997 424.994L366.994 424.997L365.997 425.994L365.994 425.997L364.997 426.994L364.994 426.997L363.997 427.994L363.994 427.997L362.997 428.994L362.994 428.997L361.997 429.994H360.997L360.994 429.997L359.997 430.994L359.994 430.997L358.997 431.994L358.994 431.997L357.997 432.994L357.994 432.997L356.997 433.994H355.997L355.994 433.997L354.997 434.994L354.994 434.997L353.997 435.994L353.994 435.997L352.997 436.994H351.997L351.994 436.997L350.997 437.994L350.994 437.997L349.997 438.994H348.997L348.994 438.997L347.997 439.994L347.994 439.997L346.997 440.994H345.997L345.994 440.997L344.997 441.994L344.994 441.997L343.997 442.994H342.997L342.994 442.997L341.997 443.994L341.994 443.997L340.997 444.994H339.997L339.994 444.997L338.997 445.994H337.997L337.994 445.997L336.997 446.994L336.994 446.997L335.997 447.994H334.997L334.994 447.997L333.997 448.994H332.997L332.994 448.997L331.997 449.994H330.997L330.994 449.997L329.997 450.994L329.994 450.997L328.997 451.994H327.997L327.994 451.997L326.997 452.994H325.997L325.994 452.997L324.997 453.994H323.997L323.994 453.997L322.997 454.994H321.997L321.994 454.997L320.997 455.994H319.997L319.994 455.997L318.997 456.994H317.997L317.994 456.997L316.997 457.994H315.997L315.994 457.997L314.997 458.994H313.997H312.997L312.994 458.997L311.997 459.994H310.997L310.994 459.997L309.997 460.994H308.997H307.997L307.994 460.997L306.997 461.994H305.997L305.994 461.997L304.997 462.994H303.997H302.997L302.994 462.997L301.997 463.994H300.997L300.994 463.997L299.997 464.994H298.997H297.997L297.994 464.997L296.997 465.994H295.997L295.994 465.997L294.997 466.994H293.997H292.997L292.994 466.997L291.997 467.994H290.997H289.997L289.994 467.997L288.997 468.994H287.997H286.997L286.994 468.997L285.997 469.994H284.997H283.997H282.997L282.994 469.997L281.997 470.994H280.997H279.997L279.994 470.997L278.997 471.994H277.997H276.997H275.997L275.994 471.997L274.997 472.994H273.997H272.997H271.997L271.994 472.997L270.997 473.994H269.997H268.997H267.997L267.994 473.997L266.997 474.994H265.997H264.997H263.997L263.994 474.997L262.997 475.994H261.997H260.997H259.997H258.997H257.997H256.997H255.997L255.994 475.997L254.997 476.994H253.997H252.997H251.997L251.994 476.997L250.997 477.994H249.997H248.997H247.997H246.997H245.997H244.997H243.997H242.997H241.997H240.997L240.994 477.997L239.997 478.994H238.997H237.997H236.997H235.997H234.997H233.997H232.997H231.997H230.997H229.997H228.997H227.997H226.997H225.997H224.997H223.997H222.997H221.997L221.994 478.997L220.997 479.994Z" fill="white"></path></svg>